<svg xmlns="http://www.w3.org/2000/svg" xmlns:xlink="http://www.w3.org/1999/xlink" viewBox="0 0 1400 606.82"><defs><style>.cls-1{fill:#a0a0a0;}.cls-2{fill:#e0b0e2;}.cls-11,.cls-2{stroke:#fff;}.cls-11,.cls-13,.cls-15,.cls-2,.cls-3,.cls-5{stroke-miterlimit:10;}.cls-3{fill:#f9f7f9;}.cls-13,.cls-3,.cls-5{stroke:#000;}.cls-15,.cls-3,.cls-5{stroke-width:0.25px;}.cls-4{fill:#f4f2f4;}.cls-15,.cls-5{fill:none;}.cls-6{fill:#9b9a9b;}.cls-7{fill:#bfbebf;}.cls-8{fill:#848384;}.cls-9{fill:#b2b2b2;}.cls-10{fill:#f8def9;}.cls-11{fill:#fff;}.cls-12{fill:url(#linear-gradient);}.cls-13{fill:#050101;}.cls-14{fill:#f23bc3;}.cls-15{stroke:#070607;}.cls-16{fill:url(#linear-gradient-2);}.cls-17{fill:url(#linear-gradient-3);}.cls-18{fill:url(#linear-gradient-4);}.cls-19{fill:url(#linear-gradient-5);}.cls-20{fill:url(#linear-gradient-6);}.cls-21{fill:url(#linear-gradient-7);}</style><linearGradient id="linear-gradient" x1="404.2" y1="231.02" x2="423.35" y2="212.91" gradientTransform="translate(-169.01 73.11) scale(1.23 0.91)" gradientUnits="userSpaceOnUse"><stop offset="0.3" stop-color="#3ddeed"/><stop offset="1" stop-color="#3ddeed" stop-opacity="0"/></linearGradient><linearGradient id="linear-gradient-2" x1="576.63" y1="147.99" x2="595.77" y2="129.87" gradientTransform="translate(-179.1 49.37) scale(1.23 0.91)" xlink:href="#linear-gradient"/><linearGradient id="linear-gradient-3" x1="743.69" y1="82.6" x2="762.84" y2="64.49" gradientTransform="translate(-187.29 26.28) scale(1.23 0.91)" xlink:href="#linear-gradient"/><linearGradient id="linear-gradient-4" x1="900.98" y1="208.89" x2="920.13" y2="190.78" gradientTransform="translate(-175.35 3.4) scale(1.23 0.91)" xlink:href="#linear-gradient"/><linearGradient id="linear-gradient-5" x1="1051.43" y1="326.59" x2="1070.57" y2="308.47" gradientTransform="translate(-164.24 -18.46) scale(1.23 0.91)" xlink:href="#linear-gradient"/><linearGradient id="linear-gradient-6" x1="230.1" y1="327.67" x2="249.25" y2="309.55" gradientTransform="translate(-157.49 97.01) scale(1.23 0.91)" xlink:href="#linear-gradient"/><linearGradient id="linear-gradient-7" x1="1206.64" y1="480.58" x2="1225.78" y2="462.47" gradientTransform="translate(-149.38 -41.2) scale(1.23 0.91)" xlink:href="#linear-gradient"/></defs><title>walkcyclebunnyeksamen</title><g id="Layer_5" data-name="Layer 5"><polygon class="cls-1" points="293.74 217.27 290.41 221.12 294.99 223.33 291.85 227.33 296.54 229.31 293.62 233.47 298.41 235.18 295.76 239.52 300.65 240.88 298.35 245.42 303.35 246.32 301.59 251.09 306.66 251.23 305.99 256.27 310.7 254.62 313.33 258.84 314.31 253.97 319.31 253.85 316.91 249.37 321.61 247.47 318.29 243.62 322.65 241.02 318.91 237.58 323.01 234.58 319.01 231.45 322.9 228.18 318.71 225.31 322.4 221.81 318.06 219.16 321.57 215.48 317.11 213.04 320.44 209.2 315.86 206.98 319 202.98 314.31 201 317.23 196.84 312.44 195.14 315.09 190.8 310.2 189.43 312.5 184.9 307.5 183.99 309.26 179.22 304.19 179.09 304.87 174.04 300.15 175.69 297.52 171.47 296.54 176.35 291.54 176.46 293.94 180.95 289.24 182.85 292.56 186.7 288.2 189.3 291.94 192.74 287.84 195.73 291.84 198.86 287.95 202.13 292.14 205.01 288.45 208.5 292.79 211.15 289.28 214.83 293.74 217.27"/><ellipse class="cls-2" cx="311.53" cy="210.91" rx="5.75" ry="26.78" transform="translate(-32.57 58.83) rotate(-10.25)"/><rect class="cls-3" x="338.94" y="327.87" width="4.43" height="8.11"/><path class="cls-4" d="M205.8,424.35c0,1.52-3.84,3.36-3.58,4.82s4.5,1.9,5,3.3-2.46,4.45-1.72,5.75,4.88.27,5.83,1.43-.9,5,.23,6,4.72-1.27,6-.45.64,5,2,5.65,4.14-2.61,5.6-2.18,2.05,4.63,3.56,4.84,3.23-3.67,4.76-3.67,3.3,3.87,4.76,3.67,2.14-4.43,3.56-4.84,4.25,2.8,5.6,2.18.78-4.85,2-5.65,4.88,1.44,6,.45-.72-4.84.23-6,5.09-.14,5.83-1.44-2.23-4.34-1.72-5.75,4.75-1.81,5-3.3-3.58-3.3-3.58-4.82,3.84-3.36,3.58-4.82-4.5-1.9-5-3.3,2.46-4.45,1.72-5.75-4.88-.27-5.83-1.43.9-5-.23-6-4.72,1.27-6,.45-.64-5-2-5.65-4.14,2.61-5.6,2.18-2.05-4.63-3.56-4.84-3.23,3.67-4.76,3.67-3.3-3.87-4.76-3.67-2.14,4.43-3.56,4.84-4.25-2.8-5.6-2.18-.78,4.85-2,5.65-4.88-1.44-6-.45.72,4.84-.23,6-5.09.14-5.83,1.44,2.23,4.34,1.72,5.75-4.75,1.81-5,3.3S205.8,422.83,205.8,424.35Z"/><path class="cls-5" d="M205.8,424.35c0,1.52-3.84,3.36-3.58,4.82s4.5,1.9,5,3.3-2.46,4.45-1.72,5.75,4.88.27,5.83,1.43-.9,5,.23,6,4.72-1.27,6-.45.64,5,2,5.65,4.14-2.61,5.6-2.18,2.05,4.63,3.56,4.84,3.23-3.67,4.76-3.67,3.3,3.87,4.76,3.67,2.14-4.43,3.56-4.84,4.25,2.8,5.6,2.18.78-4.85,2-5.65,4.88,1.44,6,.45-.72-4.84.23-6,5.09-.14,5.83-1.44-2.23-4.34-1.72-5.75,4.75-1.81,5-3.3-3.58-3.3-3.58-4.82,3.84-3.36,3.58-4.82-4.5-1.9-5-3.3,2.46-4.45,1.72-5.75-4.88-.27-5.83-1.43.9-5-.23-6-4.72,1.27-6,.45-.64-5-2-5.65-4.14,2.61-5.6,2.18-2.05-4.63-3.56-4.84-3.23,3.67-4.76,3.67-3.3-3.87-4.76-3.67-2.14,4.43-3.56,4.84-4.25-2.8-5.6-2.18-.78,4.85-2,5.65-4.88-1.44-6-.45.72,4.84-.23,6-5.09.14-5.83,1.44,2.23,4.34,1.72,5.75-4.75,1.81-5,3.3S205.8,422.83,205.8,424.35Z"/><rect class="cls-6" x="340.28" y="369.89" width="21.75" height="67.9" rx="10.87" ry="10.87" transform="translate(-169.78 281.27) rotate(-35.75)"/><path class="cls-7" d="M246,401.49c0,.58-6,1.23-6,1.81s6,.92,6.06,1.49-5.92,1.54-5.87,2.12,6.07.6,6.13,1.17-5.83,1.85-5.75,2.42,6.1.27,6.19.84-5.72,2.16-5.62,2.73,6.1-.05,6.22.51-5.6,2.47-5.46,3,6.09-.38,6.24.17-5.46,2.76-5.29,3.31,6.06-.71,6.24-.16-5.3,3.06-5.1,3.6,6-1,6.22-.5-5.13,3.34-4.9,3.87,5.95-1.36,6.19-.84-4.94,3.61-4.68,4.13,5.86-1.68,6.13-1.17-4.73,3.88-4.45,4.38,5.76-2,6.06-1.51-4.51,4.13-4.21,4.61,5.65-2.31,6-1.84-4.28,4.37-3.95,4.84,5.51-2.62,5.86-2.16-4,4.6-3.67,5,5.36-2.92,5.73-2.48-3.77,4.81-3.39,5.24,5.19-3.21,5.58-2.79-3.5,5-3.09,5.42,5-3.5,5.42-3.1-3.22,5.2-2.79,5.59,4.8-3.77,5.24-3.4-2.92,5.38-2.47,5.73,4.58-4,5-3.69-2.61,5.53-2.14,5.87,4.34-4.29,4.82-4-2.29,5.67-1.8,6,4.08-4.53,4.58-4.24-2,5.8-1.45,6.07,3.82-4.76,4.33-4.5-1.62,5.9-1.1,6.15,3.53-5,4.06-4.74-1.27,6-.74,6.2,3.23-5.17,3.77-5-.92,6-.37,6.23,2.92-5.35,3.47-5.19-.56,6.09,0,6.24,2.6-5.52,3.16-5.38-.19,6.11.37,6.23,2.27-5.66,2.84-5.56.17,6.11.74,6.2,1.93-5.79,2.5-5.72.53,6.09,1.1,6.14,1.58-5.89,2.16-5.86.89,6.05,1.46,6.07,1.24-6,1.81-6,1.24,6,1.81,6,.89-6,1.46-6.07,1.59,5.91,2.16,5.86.53-6.08,1.1-6.14,1.93,5.8,2.5,5.72.17-6.1.74-6.2,2.27,5.68,2.84,5.56-.19-6.1.37-6.23,2.61,5.53,3.16,5.38-.55-6.08,0-6.24,2.93,5.37,3.47,5.19-.91-6-.37-6.23,3.24,5.19,3.77,5-1.26-6-.74-6.2,3.54,5,4.06,4.74-1.61-5.88-1.1-6.15,3.82,4.77,4.33,4.5-1.95-5.78-1.45-6.07,4.09,4.54,4.58,4.24-2.28-5.66-1.8-6,4.35,4.3,4.82,4-2.6-5.52-2.14-5.87,4.59,4,5,3.69-2.91-5.36-2.47-5.73,4.81,3.78,5.24,3.4-3.21-5.19-2.79-5.59,5,3.51,5.42,3.1-3.49-5-3.09-5.42,5.2,3.22,5.58,2.79-3.76-4.8-3.39-5.24,5.37,2.93,5.73,2.48-4-4.59-3.68-5,5.52,2.63,5.86,2.16-4.27-4.36-3.95-4.84,5.66,2.32,6,1.83-4.5-4.12-4.21-4.61,5.78,2,6.06,1.51-4.72-3.87-4.45-4.38,5.88,1.69,6.13,1.17-4.92-3.6-4.68-4.13,6,1.37,6.19.84-5.11-3.33-4.9-3.87,6,1,6.22.5-5.29-3-5.1-3.59,6.07.71,6.24.16-5.44-2.76-5.29-3.31,6.1.39,6.24-.17-5.58-2.46-5.46-3,6.12.06,6.22-.51-5.71-2.16-5.62-2.73,6.11-.27,6.19-.84-5.81-1.85-5.75-2.42,6.09-.59,6.13-1.17-5.9-1.54-5.87-2.12,6-.91,6.06-1.49-6-1.23-6-1.81,6-1.23,6-1.81-6-.92-6.06-1.49,5.92-1.54,5.87-2.12-6.07-.6-6.13-1.17,5.83-1.85,5.75-2.42-6.1-.27-6.19-.84,5.72-2.16,5.62-2.73-6.1.05-6.22-.51,5.6-2.47,5.46-3-6.09.38-6.24-.17,5.46-2.76,5.29-3.31-6.06.71-6.24.16,5.3-3.06,5.1-3.6-6,1-6.22.5,5.13-3.34,4.9-3.87-5.95,1.36-6.19.84,4.94-3.61,4.68-4.13-5.86,1.68-6.13,1.17,4.73-3.88,4.45-4.38-5.76,2-6.06,1.51,4.51-4.13,4.21-4.61-5.65,2.31-6,1.84,4.28-4.37,3.95-4.84-5.51,2.62-5.86,2.16,4-4.6,3.67-5-5.36,2.92-5.73,2.48,3.77-4.81,3.39-5.24-5.19,3.21-5.58,2.79,3.5-5,3.09-5.42-5,3.5-5.42,3.1,3.22-5.2,2.79-5.59-4.8,3.77-5.24,3.4,2.92-5.38,2.47-5.73-4.58,4-5,3.69,2.61-5.53,2.14-5.87-4.34,4.29-4.82,4,2.29-5.67,1.8-6-4.08,4.53-4.58,4.24,2-5.8,1.45-6.07-3.82,4.76-4.33,4.5,1.62-5.9,1.1-6.15-3.53,5-4.06,4.74,1.27-6,.74-6.2-3.23,5.17-3.77,5,.92-6,.37-6.23-2.92,5.35-3.47,5.19.56-6.09,0-6.24-2.6,5.52-3.16,5.38.19-6.11-.37-6.23-2.27,5.66-2.84,5.56-.17-6.11-.74-6.2-1.93,5.79-2.5,5.72-.53-6.09-1.1-6.14-1.58,5.89-2.16,5.86-.89-6.05-1.46-6.07-1.24,6-1.81,6-1.24-6-1.81-6-.89,6-1.46,6.07S298.58,336,298,336s-.53,6.08-1.1,6.14-1.93-5.8-2.5-5.72-.17,6.1-.74,6.2-2.27-5.68-2.84-5.56.19,6.1-.37,6.23-2.61-5.53-3.16-5.38.55,6.08,0,6.24-2.93-5.37-3.47-5.19.91,6,.37,6.23-3.24-5.19-3.77-5,1.26,6,.74,6.2-3.54-5-4.06-4.74,1.61,5.88,1.1,6.15-3.82-4.77-4.33-4.5,1.95,5.78,1.45,6.07-4.09-4.54-4.58-4.24,2.28,5.66,1.8,6-4.35-4.3-4.82-4,2.6,5.52,2.14,5.87-4.59-4-5-3.69,2.91,5.36,2.47,5.73-4.81-3.78-5.24-3.4,3.21,5.19,2.79,5.59-5-3.51-5.42-3.1,3.49,5,3.09,5.42-5.2-3.22-5.58-2.79,3.76,4.8,3.39,5.24-5.37-2.93-5.73-2.48,4,4.59,3.68,5-5.52-2.63-5.86-2.16,4.27,4.36,3.95,4.84-5.66-2.32-6-1.83,4.5,4.12,4.21,4.61-5.78-2-6.06-1.51,4.72,3.87,4.45,4.38-5.88-1.69-6.13-1.17,4.92,3.6,4.68,4.13-6-1.37-6.19-.84,5.11,3.33,4.9,3.87-6-1-6.22-.5,5.29,3,5.1,3.59-6.07-.71-6.24-.16,5.44,2.76,5.29,3.31-6.1-.39-6.24.17,5.58,2.46,5.46,3-6.12-.06-6.22.51,5.71,2.16,5.62,2.73-6.11.27-6.19.84,5.81,1.85,5.75,2.42-6.09.59-6.13,1.17,5.9,1.54,5.87,2.12-6,.91-6.06,1.49S246,400.92,246,401.49Z"/><ellipse class="cls-6" cx="288.62" cy="439.68" rx="48.42" ry="39.74"/><path class="cls-8" d="M325.2,511.29c-3.15,1.63-7.45.45-12.14-2.87-6.8-4.82-14.41-14.13-20.52-25.91-10.33-19.89-12.46-39.27-4.75-43.27s22.33,8.88,32.66,28.78S332.91,507.29,325.2,511.29Z"/><rect class="cls-9" x="329.63" y="390.02" width="21.75" height="57.59" rx="10.87" ry="10.87" transform="translate(-149.05 191.48) rotate(-25.98)"/><path class="cls-10" d="M335.47,402.23c-1.75-1,1.1-4.22-.12-5.83s-3.53.51-5-.83.35-3.89-1.39-4.92-3.55,2-5.29,1,0-4.09-1.71-5.11-4.24,2.19-5.67.75,1.84-3.87.86-5.62-4.79-.29-5.24-2.24,3.64-2.18,3.78-4.1-3-1.83-3.26-3.73c-.26-2.07,2.84-2.74,2.22-4.73s-5.48-2.42-4.52-4.27c1-2,4.33,1.65,6.43.81s.68-3.51,2.54-4.79c1.36-.93,3.42,1.27,4.43,0s-1.79-3.74-.65-4.92c1.59-1.65,4.17,1,5.88-.5s-.57-5.14,1.54-6,3.18,3.24,5.55,3.07,1.9-3.33,4.22-3.85c1.62-.36,2.64,2.65,4.15,2s.28-4.42,1.9-4.75,2.06,3.55,3.8,3.58,2.07-3.75,3.79-3.47c1.88.3,1,4,2.87,4.54s3.56-3.16,5.15-2.1-1.11,4.12.14,5.63,5.31-.33,5.62,1.6-4.13,1.68-4.82,3.67,2,2.36,2.07,4.46-2.48,2.77-1.58,4.69,4.22.44,5.05,2.39-2.57,3.26-1.83,5.19,5.11,1.36,4.9,3.42c-.24,2.36-4.47,1-5.62,3.11s1.08,2.67,1,5-2.26,2.78-1.18,4.73,6,1.34,5.43,3.5-4.46-1-6.34.1-.12,4.1-2,5.19c-1.39.81-3.2-2.2-4.57-1.35s.52,3.84-.84,4.71-3.41-2-4.9-1-.12,5.09-1.88,5.2-.9-4.15-2.48-4.93-2.73,2.22-4.43,1.74c-1.85-.52-1.92-4.29-3.78-3.82C337.29,400,337.13,403.19,335.47,402.23Z"/><circle class="cls-7" cx="300.35" cy="294.9" r="53.24"/><path class="cls-11" d="M311.82,284.13c-2.79,11.71,14.9,17.17,24.89,13.77s15.05-15.09,11.3-26.1S327.37,247.09,323.12,258C322.15,260.54,312.73,280.33,311.82,284.13Z"/><ellipse class="cls-12" cx="337.09" cy="276.71" rx="12.15" ry="12.93" transform="translate(-29.5 40.47) rotate(-6.58)"/><ellipse class="cls-13" cx="340.5" cy="273.87" rx="6.75" ry="6.34" transform="translate(-29.15 40.84) rotate(-6.58)"/><path class="cls-14" d="M354.86,306.77l2.66-6.39a3.52,3.52,0,0,0-3.66-4.85l-6.71.77a3.52,3.52,0,0,0-2.45,5.56l4,5.62A3.52,3.52,0,0,0,354.86,306.77Z"/><circle class="cls-7" cx="343.38" cy="318.36" r="10.21"/><polygon class="cls-7" points="251.09 218.73 247.87 223.1 252.57 225.8 249.6 230.34 254.46 232.77 251.77 237.48 256.78 239.58 254.43 244.47 259.59 246.17 257.7 251.25 263 252.38 261.8 257.68 267.2 257.88 267.33 263.31 272.35 261.49 275.69 265.65 277.37 260.58 282.71 260.52 280.93 255.39 285.92 253.31 282.94 248.78 287.51 245.86 283.96 241.75 288.19 238.37 284.28 234.6 288.23 230.89 284.06 227.41 287.76 223.44 283.39 220.23 286.85 216.04 282.3 213.08 285.52 208.71 280.82 206.01 283.79 201.47 278.93 199.04 281.62 194.33 276.62 192.23 278.96 187.34 273.8 185.64 275.69 180.56 270.39 179.43 271.6 174.13 266.19 173.93 266.06 168.5 261.04 170.32 257.7 166.16 256.02 171.23 250.68 171.29 252.46 176.42 247.47 178.5 250.45 183.04 245.88 185.95 249.44 190.06 245.2 193.44 249.11 197.21 245.16 200.92 249.33 204.4 245.63 208.37 250 211.58 246.54 215.76 251.09 218.73"/><ellipse class="cls-2" cx="272.22" cy="215.7" rx="5.75" ry="26.78" transform="translate(-34.05 51.9) rotate(-10.25)"/><path class="cls-15" d="M344.77,328.16c-7.2,0-22.27,5.72-23.2-9.8"/><polygon class="cls-1" points="496.37 121.3 494.43 126 499.47 126.65 497.76 131.44 502.83 131.83 501.38 136.71 506.46 136.81 505.32 141.76 510.39 141.51 509.64 146.54 514.67 145.82 514.51 150.9 519.36 149.43 520.32 154.42 524.27 151.37 528.1 154.54 527.49 149.6 532.19 147.92 528.5 144.42 532.36 141.13 527.99 138.53 531.31 134.68 526.66 132.6 529.61 128.46 524.82 126.76 527.48 122.42 522.59 121.02 524.99 116.54 520.04 115.4 522.21 110.8 517.2 109.9 519.14 105.2 514.1 104.54 515.81 99.75 510.74 99.36 512.19 94.49 507.11 94.38 508.25 89.43 503.17 89.68 503.92 84.65 498.89 85.37 499.06 80.29 494.21 81.77 493.25 76.77 489.3 79.82 485.47 76.65 486.08 81.59 481.37 83.28 485.07 86.77 481.21 90.06 485.58 92.67 482.26 96.51 486.9 98.59 483.95 102.73 488.74 104.43 486.09 108.77 490.98 110.17 488.57 114.66 493.53 115.79 491.36 120.4 496.37 121.3"/><ellipse class="cls-2" cx="511.23" cy="109.64" rx="5.75" ry="26.78" transform="translate(10.13 258.89) rotate(-28.69)"/><rect class="cls-3" x="540.3" y="228.3" width="4.43" height="8.11"/><path class="cls-4" d="M407.16,324.79c0,1.52-3.84,3.36-3.58,4.82s4.5,1.9,5,3.3-2.46,4.45-1.72,5.75,4.88.27,5.83,1.43-.9,5,.23,6,4.72-1.27,6-.45.64,5,2,5.65,4.14-2.61,5.6-2.18,2.05,4.63,3.56,4.84,3.23-3.67,4.76-3.67,3.3,3.87,4.76,3.67,2.14-4.43,3.56-4.84,4.25,2.8,5.6,2.18.78-4.85,2-5.65,4.88,1.44,6,.45-.72-4.84.23-6,5.09-.14,5.83-1.44-2.23-4.34-1.72-5.75,4.75-1.81,5-3.3-3.58-3.3-3.58-4.82,3.84-3.36,3.58-4.82-4.5-1.9-5-3.3,2.46-4.45,1.72-5.75-4.88-.27-5.83-1.43.9-5-.23-6-4.72,1.27-6,.45-.64-5-2-5.65-4.14,2.61-5.6,2.18-2.05-4.63-3.56-4.84-3.23,3.67-4.76,3.67-3.3-3.87-4.76-3.67-2.14,4.43-3.56,4.84-4.25-2.8-5.6-2.18-.78,4.85-2,5.65-4.88-1.44-6-.45.72,4.84-.23,6-5.09.14-5.83,1.44,2.23,4.34,1.72,5.75-4.75,1.81-5,3.3S407.16,323.27,407.16,324.79Z"/><path class="cls-5" d="M407.16,324.79c0,1.52-3.84,3.36-3.58,4.82s4.5,1.9,5,3.3-2.46,4.45-1.72,5.75,4.88.27,5.83,1.43-.9,5,.23,6,4.72-1.27,6-.45.64,5,2,5.65,4.14-2.61,5.6-2.18,2.05,4.63,3.56,4.84,3.23-3.67,4.76-3.67,3.3,3.87,4.76,3.67,2.14-4.43,3.56-4.84,4.25,2.8,5.6,2.18.78-4.85,2-5.65,4.88,1.44,6,.45-.72-4.84.23-6,5.09-.14,5.83-1.44-2.23-4.34-1.72-5.75,4.75-1.81,5-3.3-3.58-3.3-3.58-4.82,3.84-3.36,3.58-4.82-4.5-1.9-5-3.3,2.46-4.45,1.72-5.75-4.88-.27-5.83-1.43.9-5-.23-6-4.72,1.27-6,.45-.64-5-2-5.65-4.14,2.61-5.6,2.18-2.05-4.63-3.56-4.84-3.23,3.67-4.76,3.67-3.3-3.87-4.76-3.67-2.14,4.43-3.56,4.84-4.25-2.8-5.6-2.18-.78,4.85-2,5.65-4.88-1.44-6-.45.72,4.84-.23,6-5.09.14-5.83,1.44,2.23,4.34,1.72,5.75-4.75,1.81-5,3.3S407.16,323.27,407.16,324.79Z"/><rect class="cls-6" x="541.64" y="270.33" width="21.75" height="67.9" rx="10.87" ry="10.87" transform="translate(-73.67 380.15) rotate(-35.75)"/><path class="cls-7" d="M447.37,301.93c0,.58-6,1.23-6,1.81s6,.92,6.06,1.49-5.92,1.54-5.87,2.12,6.07.6,6.13,1.17-5.83,1.85-5.75,2.42,6.1.27,6.19.84-5.72,2.16-5.62,2.73,6.1-.05,6.22.51-5.6,2.47-5.46,3,6.09-.38,6.24.17-5.46,2.76-5.29,3.31,6.06-.71,6.24-.16-5.3,3.06-5.1,3.6,6-1,6.22-.5-5.13,3.34-4.9,3.87,5.95-1.36,6.19-.84-4.94,3.61-4.68,4.13,5.86-1.68,6.13-1.17-4.73,3.88-4.45,4.38,5.76-2,6.06-1.51-4.51,4.13-4.21,4.61,5.65-2.31,6-1.84-4.28,4.37-3.95,4.84,5.51-2.62,5.86-2.16-4,4.6-3.67,5,5.36-2.92,5.73-2.48-3.77,4.81-3.39,5.24,5.19-3.21,5.58-2.79-3.5,5-3.09,5.42,5-3.5,5.42-3.1-3.22,5.2-2.79,5.59,4.8-3.77,5.24-3.4-2.92,5.38-2.47,5.73,4.58-4,5-3.69-2.61,5.53-2.14,5.87,4.34-4.29,4.82-4-2.29,5.67-1.8,6,4.08-4.53,4.58-4.24-2,5.8-1.45,6.07,3.82-4.76,4.33-4.5-1.62,5.9-1.1,6.15,3.53-5,4.06-4.74-1.27,6-.74,6.2,3.23-5.17,3.77-5-.92,6-.37,6.23,2.92-5.35,3.47-5.19-.56,6.09,0,6.24,2.6-5.52,3.16-5.38-.19,6.11.37,6.23,2.27-5.66,2.84-5.56.17,6.11.74,6.2,1.93-5.79,2.5-5.72.53,6.09,1.1,6.14,1.58-5.89,2.16-5.86.89,6.05,1.46,6.07,1.24-6,1.81-6,1.24,6,1.81,6,.89-6,1.46-6.07,1.59,5.91,2.16,5.86.53-6.08,1.1-6.14,1.93,5.8,2.5,5.72.17-6.1.74-6.2,2.27,5.68,2.84,5.56-.19-6.1.37-6.23,2.61,5.53,3.16,5.38-.55-6.08,0-6.24,2.93,5.37,3.47,5.19-.91-6-.37-6.23,3.24,5.19,3.77,5-1.26-6-.74-6.2,3.54,5,4.06,4.74-1.61-5.88-1.1-6.15,3.82,4.77,4.33,4.5-1.95-5.78-1.45-6.07,4.09,4.54,4.58,4.24-2.28-5.66-1.8-6,4.35,4.3,4.82,4-2.6-5.52-2.14-5.87,4.59,4,5,3.69-2.91-5.36-2.47-5.73,4.81,3.78,5.24,3.4-3.21-5.19-2.79-5.59,5,3.51,5.42,3.1-3.49-5-3.09-5.42,5.2,3.22,5.58,2.79-3.76-4.8-3.39-5.24,5.37,2.93,5.73,2.48-4-4.59-3.68-5,5.52,2.63,5.86,2.16-4.27-4.36-3.95-4.84,5.66,2.32,6,1.83-4.5-4.12-4.21-4.61,5.78,2,6.06,1.51-4.72-3.87-4.45-4.38,5.88,1.69,6.13,1.17-4.92-3.6-4.68-4.13,6,1.37,6.19.84-5.11-3.33-4.9-3.87,6,1,6.22.5-5.29-3-5.1-3.59,6.07.71,6.24.16-5.44-2.76-5.29-3.31,6.1.39,6.24-.17-5.58-2.46-5.46-3,6.12.06,6.22-.51-5.71-2.16-5.62-2.73,6.11-.27,6.19-.84-5.81-1.85-5.75-2.42,6.09-.59,6.13-1.17-5.9-1.54-5.87-2.12,6-.91,6.06-1.49-6-1.23-6-1.81,6-1.23,6-1.81-6-.92-6.06-1.49,5.92-1.54,5.87-2.12-6.07-.6-6.13-1.17,5.83-1.85,5.75-2.42-6.1-.27-6.19-.84,5.72-2.16,5.62-2.73-6.1.05-6.22-.51,5.6-2.47,5.46-3-6.09.38-6.24-.17,5.46-2.76,5.29-3.31-6.06.71-6.24.16,5.3-3.06,5.1-3.6-6,1-6.22.5,5.13-3.34,4.9-3.87-5.95,1.36-6.19.84,4.94-3.61,4.68-4.13-5.86,1.68-6.13,1.17,4.73-3.88,4.45-4.38-5.76,2-6.06,1.51,4.51-4.13,4.21-4.61-5.65,2.31-6,1.84,4.28-4.37,3.95-4.84-5.51,2.62-5.86,2.16,4-4.6,3.67-5-5.36,2.92-5.73,2.48,3.77-4.81,3.39-5.24-5.19,3.21-5.58,2.79,3.5-5,3.09-5.42-5,3.5-5.42,3.1,3.22-5.2,2.79-5.59-4.8,3.77-5.24,3.4,2.92-5.38,2.47-5.73-4.58,4-5,3.69,2.61-5.53,2.14-5.87-4.34,4.29-4.82,4,2.29-5.67,1.8-6-4.08,4.53-4.58,4.24,2-5.8,1.45-6.07-3.82,4.76-4.33,4.5,1.62-5.9,1.1-6.15-3.53,5-4.06,4.74,1.27-6,.74-6.2-3.23,5.17-3.77,5,.92-6,.37-6.23-2.92,5.35-3.47,5.19.56-6.09,0-6.24-2.6,5.52-3.16,5.38.19-6.11-.37-6.23-2.27,5.66-2.84,5.56-.17-6.11-.74-6.2-1.93,5.79-2.5,5.72-.53-6.09-1.1-6.14-1.58,5.89-2.16,5.86-.89-6.05-1.46-6.07-1.24,6-1.81,6-1.24-6-1.81-6-.89,6-1.46,6.07-1.59-5.91-2.16-5.86-.53,6.08-1.1,6.14-1.93-5.8-2.5-5.72-.17,6.1-.74,6.2-2.27-5.68-2.84-5.56.19,6.1-.37,6.23-2.61-5.53-3.16-5.38.55,6.08,0,6.24-2.93-5.37-3.47-5.19.91,6,.37,6.23-3.24-5.19-3.77-5,1.26,6,.74,6.2-3.54-5-4.06-4.74,1.61,5.88,1.1,6.15-3.82-4.77-4.33-4.5,1.95,5.78,1.45,6.07-4.09-4.54-4.58-4.24,2.28,5.66,1.8,6-4.35-4.3-4.82-4,2.6,5.52,2.14,5.87-4.59-4-5-3.69,2.91,5.36,2.47,5.73-4.81-3.78-5.24-3.4,3.21,5.19,2.79,5.59-5-3.51-5.42-3.1,3.49,5,3.09,5.42-5.2-3.22-5.58-2.79,3.76,4.8,3.39,5.24-5.37-2.93-5.73-2.48,4,4.59,3.68,5-5.52-2.63-5.86-2.16,4.27,4.36,3.95,4.84-5.66-2.32-6-1.83,4.5,4.12,4.21,4.61-5.78-2-6.06-1.51,4.72,3.87,4.45,4.38-5.88-1.69-6.13-1.17,4.92,3.6,4.68,4.13-6-1.37-6.19-.84,5.11,3.33,4.9,3.87-6-1-6.22-.5,5.29,3,5.1,3.59-6.07-.71-6.24-.16,5.44,2.76,5.29,3.31-6.1-.39-6.24.17,5.58,2.46,5.46,3-6.12-.06-6.22.51,5.71,2.16,5.62,2.73-6.11.27-6.19.84,5.81,1.85,5.75,2.42-6.09.59-6.13,1.17,5.9,1.54,5.87,2.12-6,.91-6.06,1.49S447.37,301.36,447.37,301.93Z"/><ellipse class="cls-6" cx="489.98" cy="340.12" rx="48.42" ry="39.74"/><path class="cls-8" d="M495,414.22c-3.36-1.12-5.51-5-6.39-10.71-1.28-8.23.1-20.18,4.29-32.77,7.08-21.27,19.49-36.29,27.73-33.55s9.18,22.21,2.1,43.48S503.28,417,495,414.22Z"/><rect class="cls-9" x="530.99" y="290.46" width="21.75" height="57.59" rx="10.87" ry="10.87" transform="translate(-85.09 269.63) rotate(-25.98)"/><path class="cls-10" d="M536.33,302.9c-1.8-1.36,2-4.16,1.31-6.29s-2.8-.81-4.43-2.37-.38-3.64-2.51-4.26-4.09,3.29-5.85,1.94,1.63-4.13.6-5.95-4.23,0-5.22-1.89c-.75-1.4,2.5-3.07,1.8-4.5s-4.11.09-4.7-1.39,3-2.63,2.54-4.08-4-.52-4.35-2c-.37-1.67,3.27-2.37,3-4.05s-4.55-2-4-3.64,4.19.6,5.38-.61-1.37-3.74-.18-4.95,3.71,1.36,4.86.19-1.41-3.9-.17-5c1.71-1.46,4,1.46,5.84.11s-.34-4.59,1.61-5.7,3.62,2.38,5.66,1.54.89-4.71,3.06-5.12c1.73-.33,2,3.69,3.71,3.82s1.75-3.21,3.5-3.34,2.25,3.17,4,2.79,1.4-4.41,3.17-4.32,1.24,4.08,3.08,4.64,3.75-3.21,5.29-2.05-1.53,4-.47,5.67,4.56-.22,5.3,1.58-3.07,2.88-2.71,4.72,4.33,1.49,4.3,3.37c0,2.07-4,1.61-4.43,3.63S568.2,268,568,270s-3.59,1.79-3.6,3.78,3.59,2,3.6,4-3.58,2-3.55,4,3.31,1.7,3.63,3.66-2.89,2.66-2.29,4.45,5.23,1.83,4.6,3.62-4.27-1.06-5.86,0,.37,3-.71,4.61c-1.28,1.85-3.83.64-4.45,2.79s3.33,5.29,1.37,6.38-2.4-3.94-4.47-4.6-3.13,2.76-5.21,2.13c-1.49-.45-.48-3.89-2-4.32s-2.15,2.83-3.7,2.66c-2-.23-2.57-4.12-4.48-3.43C538.2,300.69,538,304.13,536.33,302.9Z"/><circle class="cls-7" cx="501.71" cy="195.34" r="53.24"/><path class="cls-11" d="M513.18,184.57c-2.79,11.71,14.9,17.17,24.89,13.77s15.05-15.09,11.3-26.1-20.64-24.71-24.89-13.77C523.51,161,514.09,180.77,513.18,184.57Z"/><ellipse class="cls-16" cx="538.45" cy="177.15" rx="12.15" ry="12.93" transform="translate(-16.76 62.9) rotate(-6.58)"/><ellipse class="cls-13" cx="541.86" cy="174.3" rx="6.75" ry="6.34" transform="translate(-16.41 63.27) rotate(-6.58)"/><path class="cls-14" d="M556.22,207.21l2.66-6.39a3.52,3.52,0,0,0-3.66-4.85l-6.71.77a3.52,3.52,0,0,0-2.45,5.56l4,5.62A3.52,3.52,0,0,0,556.22,207.21Z"/><circle class="cls-7" cx="544.74" cy="218.8" r="10.21"/><polygon class="cls-7" points="454.25 124.15 452.65 129.34 457.99 130.34 456.68 135.61 462.06 136.3 461.08 141.63 466.5 141.96 465.9 147.36 471.32 147.26 471.22 152.68 476.59 152 477.2 157.4 482.37 155.8 484.29 160.88 488.43 157.51 492.95 160.34 492.87 155 497.89 153.18 494.51 148.93 498.54 145.32 494.23 142.02 497.58 137.76 492.87 135.06 495.75 130.46 490.82 128.2 493.33 123.39 488.25 121.48 490.43 116.51 485.24 114.92 487.13 109.83 481.85 108.53 483.46 103.35 478.12 102.34 479.43 97.08 474.05 96.39 475.03 91.05 469.61 90.72 470.21 85.33 464.79 85.43 464.89 80 459.51 80.69 458.9 75.29 453.74 76.88 451.82 71.8 447.68 75.17 443.15 72.35 443.24 77.69 438.22 79.51 441.6 83.76 437.57 87.37 441.88 90.67 438.53 94.93 443.24 97.63 440.36 102.23 445.29 104.49 442.78 109.3 447.86 111.21 445.68 116.18 450.87 117.77 448.98 122.86 454.25 124.15"/><ellipse class="cls-2" cx="473.2" cy="114.33" rx="5.75" ry="26.78" transform="translate(5.07 247.91) rotate(-29.51)"/><path class="cls-15" d="M546.13,228.6c-7.2,0-22.27,5.72-23.2-9.8"/><polygon class="cls-1" points="679.55 49.69 679.47 54.77 684.4 53.53 684.57 58.61 689.43 57.12 689.87 62.18 694.63 60.41 695.39 65.44 700.02 63.34 701.17 68.29 705.58 65.77 707.3 70.56 711.27 67.41 713.99 71.7 716.54 67.41 721.27 68.96 718.89 64.58 722.65 61.29 717.92 59.39 720.3 54.92 715.28 54.1 716.96 49.31 711.88 49.08 713.1 44.14 708.02 44.32 708.9 39.31 703.84 39.8 704.42 34.75 699.4 35.51 699.72 30.43 694.74 31.43 694.82 26.35 689.88 27.59 689.72 22.51 684.86 24.01 684.42 18.94 679.65 20.71 678.9 15.68 674.27 17.78 673.12 12.83 668.71 15.35 666.99 10.56 663.02 13.71 660.29 9.42 657.74 13.71 653.01 12.16 655.39 16.54 651.64 19.83 656.36 21.73 653.98 26.2 659 27.02 657.33 31.82 662.4 32.05 661.18 36.98 666.26 36.8 665.39 41.81 670.45 41.32 669.86 46.37 674.89 45.61 674.56 50.69 679.55 49.69"/><ellipse class="cls-2" cx="689.09" cy="33.39" rx="5.75" ry="26.78" transform="translate(222.68 541.74) rotate(-50.24)"/><rect class="cls-3" x="736.99" y="145.51" width="4.43" height="8.11"/><path class="cls-4" d="M603.85,242c0,1.52-3.84,3.36-3.58,4.82s4.5,1.9,5,3.3-2.46,4.45-1.72,5.75,4.88.27,5.83,1.43-.9,5,.23,6,4.72-1.27,6-.45.64,5,2,5.65,4.14-2.61,5.6-2.18,2.05,4.63,3.56,4.84,3.23-3.67,4.76-3.67,3.3,3.87,4.76,3.67,2.14-4.43,3.56-4.84,4.25,2.8,5.6,2.18.78-4.85,2-5.65,4.88,1.44,6,.45-.72-4.84.23-6,5.09-.14,5.83-1.44-2.23-4.34-1.72-5.75,4.75-1.81,5-3.3-3.58-3.3-3.58-4.82,3.84-3.36,3.58-4.82-4.5-1.9-5-3.3,2.46-4.45,1.72-5.75-4.88-.27-5.83-1.43.9-5-.23-6-4.72,1.27-6,.45-.64-5-2-5.65-4.14,2.61-5.6,2.18-2.05-4.63-3.56-4.84-3.23,3.67-4.76,3.67-3.3-3.87-4.76-3.67-2.14,4.43-3.56,4.84-4.25-2.8-5.6-2.18-.78,4.85-2,5.65-4.88-1.44-6-.45.72,4.84-.23,6-5.09.14-5.83,1.44,2.23,4.34,1.72,5.75-4.75,1.81-5,3.3S603.85,240.47,603.85,242Z"/><path class="cls-5" d="M603.85,242c0,1.52-3.84,3.36-3.58,4.82s4.5,1.9,5,3.3-2.46,4.45-1.72,5.75,4.88.27,5.83,1.43-.9,5,.23,6,4.72-1.27,6-.45.64,5,2,5.65,4.14-2.61,5.6-2.18,2.05,4.63,3.56,4.84,3.23-3.67,4.76-3.67,3.3,3.87,4.76,3.67,2.14-4.43,3.56-4.84,4.25,2.8,5.6,2.18.78-4.85,2-5.65,4.88,1.44,6,.45-.72-4.84.23-6,5.09-.14,5.83-1.44-2.23-4.34-1.72-5.75,4.75-1.81,5-3.3-3.58-3.3-3.58-4.82,3.84-3.36,3.58-4.82-4.5-1.9-5-3.3,2.46-4.45,1.72-5.75-4.88-.27-5.83-1.43.9-5-.23-6-4.72,1.27-6,.45-.64-5-2-5.65-4.14,2.61-5.6,2.18-2.05-4.63-3.56-4.84-3.23,3.67-4.76,3.67-3.3-3.87-4.76-3.67-2.14,4.43-3.56,4.84-4.25-2.8-5.6-2.18-.78,4.85-2,5.65-4.88-1.44-6-.45.72,4.84-.23,6-5.09.14-5.83,1.44,2.23,4.34,1.72,5.75-4.75,1.81-5,3.3S603.85,240.47,603.85,242Z"/><rect class="cls-6" x="738.32" y="187.54" width="21.75" height="67.9" rx="10.87" ry="10.87" transform="translate(11.77 479.47) rotate(-35.75)"/><path class="cls-7" d="M644.05,219.14c0,.58-6,1.23-6,1.81s6,.92,6.06,1.49-5.92,1.54-5.87,2.12,6.07.6,6.13,1.17-5.83,1.85-5.75,2.42,6.1.27,6.19.84-5.72,2.16-5.62,2.73,6.1-.05,6.22.51-5.6,2.47-5.46,3,6.09-.38,6.24.17-5.46,2.76-5.29,3.31,6.06-.71,6.24-.16-5.3,3.06-5.1,3.6,6-1,6.22-.5-5.13,3.34-4.9,3.87,5.95-1.36,6.19-.84-4.94,3.61-4.68,4.13,5.86-1.68,6.13-1.17-4.73,3.88-4.45,4.38,5.76-2,6.06-1.51-4.51,4.13-4.21,4.61,5.65-2.31,6-1.84-4.28,4.37-3.95,4.84,5.51-2.62,5.86-2.16-4,4.6-3.67,5,5.36-2.92,5.73-2.48-3.77,4.81-3.39,5.24,5.19-3.21,5.58-2.79-3.5,5-3.09,5.42,5-3.5,5.42-3.1-3.22,5.2-2.79,5.59,4.8-3.77,5.24-3.4-2.92,5.38-2.47,5.73,4.58-4,5-3.69-2.61,5.53-2.14,5.87,4.34-4.29,4.82-4-2.29,5.67-1.8,6,4.08-4.53,4.58-4.24-2,5.8-1.45,6.07,3.82-4.76,4.33-4.5-1.62,5.9-1.1,6.15,3.53-5,4.06-4.74-1.27,6-.74,6.2,3.23-5.17,3.77-5-.92,6-.37,6.23,2.92-5.35,3.47-5.19-.56,6.09,0,6.24,2.6-5.52,3.16-5.38-.19,6.11.37,6.23,2.27-5.66,2.84-5.56.17,6.11.74,6.2,1.93-5.79,2.5-5.72.53,6.09,1.1,6.14,1.58-5.89,2.16-5.86.89,6.05,1.46,6.07,1.24-6,1.81-6,1.24,6,1.81,6,.89-6,1.46-6.07,1.59,5.91,2.16,5.86.53-6.08,1.1-6.14,1.93,5.8,2.5,5.72.17-6.1.74-6.2,2.27,5.68,2.84,5.56-.19-6.1.37-6.23,2.61,5.53,3.16,5.38-.55-6.08,0-6.24,2.93,5.37,3.47,5.19-.91-6-.37-6.23,3.24,5.19,3.77,5-1.26-6-.74-6.2,3.54,5,4.06,4.74-1.61-5.88-1.1-6.15,3.82,4.77,4.33,4.5-1.95-5.78-1.45-6.07,4.09,4.54,4.58,4.24-2.28-5.66-1.8-6,4.35,4.3,4.82,4-2.6-5.52-2.14-5.87,4.59,4,5,3.69-2.91-5.36-2.47-5.73,4.81,3.78,5.24,3.4-3.21-5.19-2.79-5.59,5,3.51,5.42,3.1-3.49-5-3.09-5.42,5.2,3.22,5.58,2.79-3.76-4.8-3.39-5.24,5.37,2.93,5.73,2.48-4-4.59-3.68-5,5.52,2.63,5.86,2.16-4.27-4.36-3.95-4.84,5.66,2.32,6,1.83-4.5-4.12-4.21-4.61,5.78,2,6.06,1.51-4.72-3.87-4.45-4.38,5.88,1.69,6.13,1.17-4.92-3.6-4.68-4.13,6,1.37,6.19.84-5.11-3.33-4.9-3.87,6,1,6.22.5-5.29-3-5.1-3.59,6.07.71,6.24.16-5.44-2.76-5.29-3.31,6.1.39,6.24-.17-5.58-2.46-5.46-3,6.12.06,6.22-.51-5.71-2.16-5.62-2.73,6.11-.27,6.19-.84-5.81-1.85-5.75-2.42,6.09-.59,6.13-1.17-5.9-1.54-5.87-2.12,6-.91,6.06-1.49-6-1.23-6-1.81,6-1.23,6-1.81-6-.92-6.06-1.49,5.92-1.54,5.87-2.12-6.07-.6-6.13-1.17,5.83-1.85,5.75-2.42-6.1-.27-6.19-.84,5.72-2.16,5.62-2.73-6.1.05-6.22-.51,5.6-2.47,5.46-3-6.09.38-6.24-.17,5.46-2.76,5.29-3.31-6.06.71-6.24.16,5.3-3.06,5.1-3.6-6,1-6.22.5,5.13-3.34,4.9-3.87-5.95,1.36-6.19.84,4.94-3.61,4.68-4.13-5.86,1.68-6.13,1.17,4.73-3.88,4.45-4.38-5.76,2-6.06,1.51,4.51-4.13,4.21-4.61-5.65,2.31-6,1.84,4.28-4.37,3.95-4.84-5.51,2.62-5.86,2.16,4-4.6,3.67-5-5.36,2.92-5.73,2.48,3.77-4.81,3.39-5.24-5.19,3.21-5.58,2.79,3.5-5,3.09-5.42-5,3.5-5.42,3.1,3.22-5.2,2.79-5.59-4.8,3.77-5.24,3.4,2.92-5.38,2.47-5.73-4.58,4-5,3.69,2.61-5.53,2.14-5.87-4.34,4.29-4.82,4,2.29-5.67,1.8-6-4.08,4.53-4.58,4.24,2-5.8,1.45-6.07-3.82,4.76-4.33,4.5,1.62-5.9,1.1-6.15-3.53,5-4.06,4.74,1.27-6,.74-6.2-3.23,5.17-3.77,5,.92-6,.37-6.23-2.92,5.35-3.47,5.19.56-6.09,0-6.24-2.6,5.52-3.16,5.38.19-6.11-.37-6.23-2.27,5.66-2.84,5.56-.17-6.11-.74-6.2-1.93,5.79-2.5,5.72-.53-6.09-1.1-6.14-1.58,5.89-2.16,5.86-.89-6.05-1.46-6.07-1.24,6-1.81,6-1.24-6-1.81-6-.89,6-1.46,6.07-1.59-5.91-2.16-5.86-.53,6.08-1.1,6.14-1.93-5.8-2.5-5.72-.17,6.1-.74,6.2-2.27-5.68-2.84-5.56.19,6.1-.37,6.23-2.61-5.53-3.16-5.38.55,6.08,0,6.24-2.93-5.37-3.47-5.19.91,6,.37,6.23-3.24-5.19-3.77-5,1.26,6,.74,6.2-3.54-5-4.06-4.74,1.61,5.88,1.1,6.15-3.82-4.77-4.33-4.5,1.95,5.78,1.45,6.07-4.09-4.54-4.58-4.24,2.28,5.66,1.8,6-4.35-4.3-4.82-4,2.6,5.52,2.14,5.87-4.59-4-5-3.69,2.91,5.36,2.47,5.73-4.81-3.78-5.24-3.4,3.21,5.19,2.79,5.59-5-3.51-5.42-3.1,3.49,5,3.09,5.42-5.2-3.22-5.58-2.79,3.76,4.8,3.39,5.24-5.37-2.93-5.73-2.48,4,4.59,3.68,5-5.52-2.63-5.86-2.16,4.27,4.36,3.95,4.84-5.66-2.32-6-1.83,4.5,4.12,4.21,4.61-5.78-2-6.06-1.51,4.72,3.87,4.45,4.38-5.88-1.69-6.13-1.17,4.92,3.6,4.68,4.13-6-1.37-6.19-.84,5.11,3.33,4.9,3.87-6-1-6.22-.5,5.29,3,5.1,3.59-6.07-.71-6.24-.16,5.44,2.76,5.29,3.31-6.1-.39-6.24.17,5.58,2.46,5.46,3-6.12-.06-6.22.51,5.71,2.16,5.62,2.73-6.11.27-6.19.84,5.81,1.85,5.75,2.42-6.09.59-6.13,1.17,5.9,1.54,5.87,2.12-6,.91-6.06,1.49S644.05,218.56,644.05,219.14Z"/><ellipse class="cls-6" cx="686.66" cy="257.33" rx="48.42" ry="39.74"/><path class="cls-8" d="M712.61,332.69c-3.47.7-7.28-1.61-10.88-6.1-5.21-6.5-10-17.55-12.6-30.55-4.46-22-1.17-41.18,7.34-42.9s19,14.68,23.48,36.65S721.12,331,712.61,332.69Z"/><rect class="cls-9" x="727.67" y="207.66" width="21.75" height="57.59" rx="10.87" ry="10.87" transform="translate(-28.95 347.42) rotate(-25.98)"/><path class="cls-10" d="M732.13,221.1c-1.6-1.2,1.29-4.3,0-5.81s-4.16,1-5.5-.46,1.47-4.05.12-5.51-3.75,1.14-5.31-.1S721.8,205,720,204s-5.14,2.36-6.15.6,3.52-3.2,3.45-5.39-3.55-1.82-3.94-4c-.28-1.58,3.07-2.54,2.48-4s-4.53-.31-4.86-1.88,3.74-2.18,3.67-3.9-4.4-2.32-3.87-4,4.4.39,5.45-1-2-3.62-1-5,4.21.6,5.27-1-2.19-4.41-.76-5.67c1.66-1.46,4.12,2.08,6.06,1s.27-4.94,2.37-5.62,3.15,3.41,5.45,3.09,1.67-3.95,3.94-4.42c1.66-.34,2.57,3.22,4.19,2.72s.48-4.15,2.1-4.66c2-.62,3.13,3,5.11,2.4s1.78-5.42,3.8-5-.33,4.65,1.12,6.06,4.35-1.34,5.67.18-1.92,3.88-.84,5.37,4.69-.62,5.46,1.05-3.18,3-2.76,4.79,4.29,1,4.61,2.75c.35,2-3.55,2.54-3.31,4.51s4.34,1.75,4.31,3.74-4.12,1.69-4.43,3.7,2.89,2,3.18,4-2.76,3-1.88,4.93,5,.61,5.4,2.69-3.94,2.24-4.08,4.24,4.17,3,3.43,4.85-4.54-.38-5.81,1.17,1.7,4.63.11,5.84-3.62-2.58-5.35-1.86-.14,4-1.77,4.89-3.66-2.09-5.28-.94.25,5.29-1.68,5.73-2.08-4.09-4-4.41-2.91,3.67-4.81,3.08-.9-5.26-2.92-5.46C734.66,219.12,733.76,222.32,732.13,221.1Z"/><circle class="cls-7" cx="698.39" cy="112.54" r="53.24"/><path class="cls-11" d="M709.86,101.77c-2.79,11.71,14.9,17.17,24.89,13.77s15.05-15.09,11.3-26.1-20.64-24.71-24.89-13.77C720.19,78.19,710.77,98,709.86,101.77Z"/><ellipse class="cls-17" cx="735.13" cy="94.36" rx="12.15" ry="12.93" transform="translate(-5.97 84.9) rotate(-6.58)"/><ellipse class="cls-13" cx="738.54" cy="91.51" rx="6.75" ry="6.34" transform="translate(-5.62 85.27) rotate(-6.58)"/><path class="cls-14" d="M752.9,124.41l2.66-6.39a3.52,3.52,0,0,0-3.66-4.85l-6.71.77a3.52,3.52,0,0,0-2.45,5.56l4,5.62A3.52,3.52,0,0,0,752.9,124.41Z"/><circle class="cls-7" cx="741.42" cy="136" r="10.21"/><polygon class="cls-7" points="649.11 53.33 649.77 58.72 655.05 57.45 656.01 62.8 661.2 61.22 662.49 66.49 667.57 64.58 669.23 69.74 674.14 67.43 676.26 72.42 680.89 69.6 683.65 74.27 687.72 70.71 691.54 74.56 693.94 69.79 699.23 70.52 696.96 65.68 700.8 61.96 695.98 59.47 698.17 54.52 692.89 53.28 694.21 48.02 688.81 47.48 689.55 42.11 684.13 42.06 684.44 36.64 679.03 36.98 678.99 31.56 673.6 32.23 673.24 26.81 667.9 27.79 667.24 22.4 661.96 23.67 661 18.33 655.8 19.9 654.52 14.63 649.44 16.55 647.78 11.38 642.87 13.69 640.75 8.7 636.12 11.52 633.36 6.85 629.29 10.41 625.47 6.56 623.07 11.33 617.78 10.61 620.05 15.44 616.21 19.16 621.03 21.66 618.83 26.6 624.11 27.84 622.8 33.1 628.2 33.64 627.45 39.02 632.88 39.06 632.56 44.48 637.98 44.14 638.02 49.56 643.41 48.89 643.77 54.31 649.11 53.33"/><ellipse class="cls-2" cx="662.38" cy="36.62" rx="5.75" ry="26.78" transform="translate(240.41 548.5) rotate(-53.66)"/><path class="cls-15" d="M742.81,145.8c-7.2,0-22.27,5.72-23.2-9.8"/><polygon class="cls-1" points="897.07 129.09 894.36 133.39 899.22 134.89 896.72 139.32 901.65 140.57 899.39 145.13 904.39 146.09 902.42 150.78 907.46 151.39 905.87 156.22 910.95 156.36 909.93 161.34 914.96 160.71 915.05 165.8 919.46 163.46 922.7 167.23 922.94 162.26 927.86 161.4 924.81 157.33 929.17 154.74 925.31 151.43 929.23 148.21 925.01 145.37 928.62 141.79 924.19 139.3 927.54 135.48 922.96 133.27 926.09 129.26 921.4 127.29 924.31 123.12 919.53 121.39 922.24 117.09 917.38 115.59 919.88 111.16 914.95 109.91 917.21 105.35 912.22 104.39 914.18 99.7 909.14 99.09 910.73 94.26 905.65 94.12 906.67 89.14 901.64 89.77 901.55 84.68 897.14 87.02 893.9 83.24 893.66 88.22 888.74 89.08 891.79 93.15 887.43 95.74 891.29 99.05 887.37 102.27 891.59 105.11 887.98 108.69 892.41 111.18 889.06 115 893.64 117.21 890.51 121.22 895.2 123.18 892.29 127.35 897.07 129.09"/><ellipse class="cls-2" cx="913.69" cy="120.12" rx="5.75" ry="26.78" transform="translate(10.44 302.87) rotate(-18.93)"/><rect class="cls-3" x="941.82" y="237.95" width="4.43" height="8.11"/><path class="cls-4" d="M808.68,334.43c0,1.52-3.84,3.36-3.58,4.82s4.5,1.9,5,3.3-2.46,4.45-1.72,5.75,4.88.27,5.83,1.43-.9,5,.23,6,4.72-1.27,6-.45.64,5,2,5.65,4.14-2.61,5.6-2.18,2.05,4.63,3.56,4.84,3.23-3.67,4.76-3.67,3.3,3.87,4.76,3.67,2.14-4.43,3.56-4.84,4.25,2.8,5.6,2.18.78-4.85,2-5.65,4.88,1.44,6,.45-.72-4.84.23-6,5.09-.14,5.83-1.44-2.23-4.34-1.72-5.75,4.75-1.81,5-3.3-3.58-3.3-3.58-4.82,3.84-3.36,3.58-4.82-4.5-1.9-5-3.3,2.46-4.45,1.72-5.75-4.88-.27-5.83-1.43.9-5-.23-6-4.72,1.27-6,.45-.64-5-2-5.65-4.14,2.61-5.6,2.18-2.05-4.63-3.56-4.84-3.23,3.67-4.76,3.67-3.3-3.87-4.76-3.67-2.14,4.43-3.56,4.84-4.25-2.8-5.6-2.18-.78,4.85-2,5.65-4.88-1.44-6-.45.72,4.84-.23,6-5.09.14-5.83,1.44,2.23,4.34,1.72,5.75-4.75,1.81-5,3.3S808.68,332.91,808.68,334.43Z"/><path class="cls-5" d="M808.68,334.43c0,1.52-3.84,3.36-3.58,4.82s4.5,1.9,5,3.3-2.46,4.45-1.72,5.75,4.88.27,5.83,1.43-.9,5,.23,6,4.72-1.27,6-.45.64,5,2,5.65,4.14-2.61,5.6-2.18,2.05,4.63,3.56,4.84,3.23-3.67,4.76-3.67,3.3,3.87,4.76,3.67,2.14-4.43,3.56-4.84,4.25,2.8,5.6,2.18.78-4.85,2-5.65,4.88,1.44,6,.45-.72-4.84.23-6,5.09-.14,5.83-1.44-2.23-4.34-1.72-5.75,4.75-1.81,5-3.3-3.58-3.3-3.58-4.82,3.84-3.36,3.58-4.82-4.5-1.9-5-3.3,2.46-4.45,1.72-5.75-4.88-.27-5.83-1.43.9-5-.23-6-4.72,1.27-6,.45-.64-5-2-5.65-4.14,2.61-5.6,2.18-2.05-4.63-3.56-4.84-3.23,3.67-4.76,3.67-3.3-3.87-4.76-3.67-2.14,4.43-3.56,4.84-4.25-2.8-5.6-2.18-.78,4.85-2,5.65-4.88-1.44-6-.45.72,4.84-.23,6-5.09.14-5.83,1.44,2.23,4.34,1.72,5.75-4.75,1.81-5,3.3S808.68,332.91,808.68,334.43Z"/><rect class="cls-6" x="943.15" y="279.98" width="21.75" height="67.9" rx="10.87" ry="10.87" transform="translate(-3.64 616.57) rotate(-35.75)"/><path class="cls-7" d="M848.89,311.58c0,.58-6,1.23-6,1.81s6,.92,6.06,1.49-5.92,1.54-5.87,2.12,6.07.6,6.13,1.17-5.83,1.85-5.75,2.42,6.1.27,6.19.84-5.72,2.16-5.62,2.73,6.1-.05,6.22.51-5.6,2.47-5.46,3,6.09-.38,6.24.17-5.46,2.76-5.29,3.31,6.06-.71,6.24-.16-5.3,3.06-5.1,3.6,6-1,6.22-.5-5.13,3.34-4.9,3.87,5.95-1.36,6.19-.84-4.94,3.61-4.68,4.13,5.86-1.68,6.13-1.17-4.73,3.88-4.45,4.38,5.76-2,6.06-1.51-4.51,4.13-4.21,4.61,5.65-2.31,6-1.84-4.28,4.37-3.95,4.84,5.51-2.62,5.86-2.16-4,4.6-3.67,5,5.36-2.92,5.73-2.48-3.77,4.81-3.39,5.24,5.19-3.21,5.58-2.79-3.5,5-3.09,5.42,5-3.5,5.42-3.1-3.22,5.2-2.79,5.59,4.8-3.77,5.24-3.4-2.92,5.38-2.47,5.73,4.58-4,5-3.69-2.61,5.53-2.14,5.87,4.34-4.29,4.82-4-2.29,5.67-1.8,6,4.08-4.53,4.58-4.24-2,5.8-1.45,6.07,3.82-4.76,4.33-4.5-1.62,5.9-1.1,6.15,3.53-5,4.06-4.74-1.27,6-.74,6.2,3.23-5.17,3.77-5-.92,6-.37,6.23,2.92-5.35,3.47-5.19-.56,6.09,0,6.24,2.6-5.52,3.16-5.38-.19,6.11.37,6.23,2.27-5.66,2.84-5.56.17,6.11.74,6.2,1.93-5.79,2.5-5.72.53,6.09,1.1,6.14,1.58-5.89,2.16-5.86.89,6.05,1.46,6.07,1.24-6,1.81-6,1.24,6,1.81,6,.89-6,1.46-6.07,1.59,5.91,2.16,5.86.53-6.08,1.1-6.14,1.93,5.8,2.5,5.72.17-6.1.74-6.2,2.27,5.68,2.84,5.56-.19-6.1.37-6.23,2.61,5.53,3.16,5.38-.55-6.08,0-6.24,2.93,5.37,3.47,5.19-.91-6-.37-6.23,3.24,5.19,3.77,5-1.26-6-.74-6.2,3.54,5,4.06,4.74-1.61-5.88-1.1-6.15,3.82,4.77,4.33,4.5-1.95-5.78-1.45-6.07,4.09,4.54,4.58,4.24-2.28-5.66-1.8-6,4.35,4.3,4.82,4-2.6-5.52-2.14-5.87,4.59,4,5,3.69-2.91-5.36-2.47-5.73,4.81,3.78,5.24,3.4-3.21-5.19-2.79-5.59,5,3.51,5.42,3.1-3.49-5-3.09-5.42,5.2,3.22,5.58,2.79-3.76-4.8-3.39-5.24,5.37,2.93,5.73,2.48-4-4.59-3.68-5,5.52,2.63,5.86,2.16-4.27-4.36-3.95-4.84,5.66,2.32,6,1.83-4.5-4.12-4.21-4.61,5.78,2,6.06,1.51-4.72-3.87-4.45-4.38,5.88,1.69,6.13,1.17-4.92-3.6-4.68-4.13,6,1.37,6.19.84-5.11-3.33-4.9-3.87,6,1,6.22.5-5.29-3-5.1-3.59,6.07.71,6.24.16-5.44-2.76-5.29-3.31,6.1.39,6.24-.17-5.58-2.46-5.46-3,6.12.06,6.22-.51-5.71-2.16-5.62-2.73,6.11-.27,6.19-.84-5.81-1.85-5.75-2.42,6.09-.59,6.13-1.17-5.9-1.54-5.87-2.12,6-.91,6.06-1.49-6-1.23-6-1.81,6-1.23,6-1.81-6-.92-6.06-1.49,5.92-1.54,5.87-2.12-6.07-.6-6.13-1.17,5.83-1.85,5.75-2.42-6.1-.27-6.19-.84,5.72-2.16,5.62-2.73-6.1.05-6.22-.51,5.6-2.47,5.46-3-6.09.38-6.24-.17,5.46-2.76,5.29-3.31-6.06.71-6.24.16,5.3-3.06,5.1-3.6-6,1-6.22.5,5.13-3.34,4.9-3.87-5.95,1.36-6.19.84,4.94-3.61,4.68-4.13-5.86,1.68-6.13,1.17,4.73-3.88,4.45-4.38-5.76,2-6.06,1.51,4.51-4.13,4.21-4.61-5.65,2.31-6,1.84,4.28-4.37,3.95-4.84-5.51,2.62-5.86,2.16,4-4.6,3.67-5-5.36,2.92-5.73,2.48,3.77-4.81,3.39-5.24-5.19,3.21-5.58,2.79,3.5-5,3.09-5.42-5,3.5-5.42,3.1,3.22-5.2,2.79-5.59-4.8,3.77-5.24,3.4,2.92-5.38,2.47-5.73-4.58,4-5,3.69,2.61-5.53,2.14-5.87-4.34,4.29-4.82,4,2.29-5.67,1.8-6-4.08,4.53-4.58,4.24,2-5.8,1.45-6.07-3.82,4.76-4.33,4.5,1.62-5.9,1.1-6.15-3.53,5-4.06,4.74,1.27-6,.74-6.2-3.23,5.17-3.77,5,.92-6,.37-6.23-2.92,5.35-3.47,5.19.56-6.09,0-6.24-2.6,5.52-3.16,5.38.19-6.11-.37-6.23-2.27,5.66-2.84,5.56-.17-6.11-.74-6.2-1.93,5.79-2.5,5.72-.53-6.09-1.1-6.14S910.17,252,909.6,252s-.89-6.05-1.46-6.07-1.24,6-1.81,6-1.24-6-1.81-6-.89,6-1.46,6.07-1.59-5.91-2.16-5.86-.53,6.08-1.1,6.14-1.93-5.8-2.5-5.72-.17,6.1-.74,6.2-2.27-5.68-2.84-5.56.19,6.1-.37,6.23-2.61-5.53-3.16-5.38.55,6.08,0,6.24-2.93-5.37-3.47-5.19.91,6,.37,6.23-3.24-5.19-3.77-5,1.26,6,.74,6.2-3.54-5-4.06-4.74,1.61,5.88,1.1,6.15-3.82-4.77-4.33-4.5,1.95,5.78,1.45,6.07-4.09-4.54-4.58-4.24,2.28,5.66,1.8,6-4.35-4.3-4.82-4,2.6,5.52,2.14,5.87-4.59-4-5-3.69,2.91,5.36,2.47,5.73-4.81-3.78-5.24-3.4,3.21,5.19,2.79,5.59-5-3.51-5.42-3.1,3.49,5,3.09,5.42-5.2-3.22-5.58-2.79,3.76,4.8,3.39,5.24-5.37-2.93-5.73-2.48,4,4.59,3.68,5-5.52-2.63-5.86-2.16,4.27,4.36,3.95,4.84-5.66-2.32-6-1.83,4.5,4.12,4.21,4.61-5.78-2-6.06-1.51,4.72,3.87,4.45,4.38-5.88-1.69-6.13-1.17,4.92,3.6,4.68,4.13-6-1.37-6.19-.84,5.11,3.33,4.9,3.87-6-1-6.22-.5,5.29,3,5.1,3.59-6.07-.71-6.24-.16,5.44,2.76,5.29,3.31-6.1-.39-6.24.17,5.58,2.46,5.46,3-6.12-.06-6.22.51,5.71,2.16,5.62,2.73-6.11.27-6.19.84,5.81,1.85,5.75,2.42-6.09.59-6.13,1.17,5.9,1.54,5.87,2.12-6,.91-6.06,1.49S848.89,311,848.89,311.58Z"/><ellipse class="cls-6" cx="891.49" cy="349.76" rx="48.42" ry="39.74"/><path class="cls-8" d="M922.08,423.9c-3.37,1.11-7.42-.74-11.52-4.77-5.94-5.84-12-16.25-16.12-28.85-7-21.29-6-40.75,2.22-43.47s20.62,12.34,27.64,33.62S930.33,421.18,922.08,423.9Z"/><rect class="cls-9" x="932.5" y="300.1" width="21.75" height="57.59" rx="10.87" ry="10.87" transform="translate(-48.74 446.49) rotate(-25.98)"/><path class="cls-10" d="M940.09,309.92c-1.69-1.44-.42-3.81-2.55-4.41s-3.84,3.32-5.74,2.17c-1.7-1,1-4.31-.28-5.81s-4.43.93-5.56-.71,2.17-3.79,1.17-5.64-3.41,0-4.92-1.49.27-3.88-1.55-4.75-5.35,2.53-6.14.68,4.08-2.15,4.68-4.12-2.78-2.79-2.41-4.8c.29-1.57,3.74-1.19,3.79-2.78s-3.8-1.91-3.59-3.49c.24-1.8,4-1.12,4.44-2.89s-3.58-3.48-2.57-5,4.09,1.54,5.59.51-.51-4.44,1.11-5.26c2-1,3.56,2.64,5.64,1.87s.69-3.91,2.66-4.93,3.74,1.93,5.58.68-.14-4.89,1.91-5.76c1.67-.7,2.8,3.27,4.59,3s1.41-4.17,3.22-4.25,1.73,3.84,3.52,4,2.38-3.82,4.13-3.41.63,4.23,2.38,4.93,3.61-2.91,5.19-1.89-.82,4.29.64,5.66,4.88-1.26,5.83.5-3.13,3.18-2.78,5.16,4.18,1.47,4.37,3.47-3.68,2.19-3.65,4.17,3.8,2,3.78,4-3.79,1.91-3.86,3.9,3.57,2.06,3.57,4.06-3.64,2.05-3.57,4,3.8,1.86,3.86,3.85-3.68,2-3.64,3.91,4.26,2.47,3.72,4.3-4.4.05-5.46,1.66,2.09,4.33.66,5.62-3.74-2.2-5.4-1.36,0,4.08-1.58,5-3.5-2.26-5.17-1.29-.06,4.85-1.93,5.35-2.56-3.63-4.63-3.6-3.41,4.6-5.12,3.46,1.9-4.69.71-6.57C943.67,309.83,941.78,311.36,940.09,309.92Z"/><circle class="cls-7" cx="903.22" cy="204.98" r="53.24"/><path class="cls-11" d="M914.7,194.21c-2.79,11.71,14.9,17.17,24.89,13.77s15.05-15.09,11.3-26.1S930.25,157.17,926,168.11C925,170.63,915.6,190.41,914.7,194.21Z"/><ellipse class="cls-18" cx="939.97" cy="186.79" rx="12.15" ry="12.93" transform="translate(-15.22 108.99) rotate(-6.58)"/><ellipse class="cls-13" cx="943.38" cy="183.95" rx="6.75" ry="6.34" transform="translate(-14.87 109.37) rotate(-6.58)"/><path class="cls-14" d="M957.73,216.85l2.66-6.39a3.52,3.52,0,0,0-3.66-4.85l-6.71.77a3.52,3.52,0,0,0-2.45,5.56l4,5.62A3.52,3.52,0,0,0,957.73,216.85Z"/><circle class="cls-7" cx="946.25" cy="228.44" r="10.21"/><polygon class="cls-7" points="855.38 133.06 853.51 138.16 858.78 139.44 857.2 144.63 862.54 145.6 861.28 150.88 866.67 151.49 865.8 156.85 871.22 157.03 870.83 162.44 876.23 162.04 876.56 167.46 881.8 166.14 883.45 171.32 887.76 168.16 892.14 171.23 892.33 165.89 897.43 164.33 894.29 159.91 898.5 156.52 894.37 153 897.94 148.92 893.38 145.97 896.49 141.53 891.69 139.02 894.44 134.34 889.47 132.17 891.91 127.33 886.81 125.47 888.96 120.48 883.76 118.91 885.63 113.81 880.36 112.53 881.94 107.34 876.6 106.37 877.86 101.1 872.47 100.48 873.35 95.13 867.92 94.94 868.31 89.53 862.91 89.93 862.58 84.51 857.34 85.83 855.69 80.66 851.38 83.81 847.01 80.75 846.82 86.09 841.71 87.64 844.85 92.06 840.64 95.46 844.77 98.98 841.21 103.06 845.76 106 842.65 110.44 847.46 112.96 844.7 117.63 849.67 119.8 847.24 124.65 852.34 126.51 850.18 131.49 855.38 133.06"/><ellipse class="cls-2" cx="874.82" cy="124.24" rx="5.75" ry="26.78" transform="translate(36.52 403.53) rotate(-26.51)"/><path class="cls-15" d="M947.65,238.24c-7.2,0-22.27,5.72-23.2-9.8"/><polygon class="cls-1" points="1092.9 215.31 1090.42 219.75 1095.36 220.98 1093.11 225.54 1098.1 226.52 1096.1 231.19 1101.13 231.88 1099.43 236.67 1104.5 237 1103.18 241.91 1108.26 241.77 1107.51 246.8 1112.49 245.9 1112.87 250.97 1117.15 248.39 1120.59 251.98 1120.55 247.01 1125.42 245.88 1122.15 241.97 1126.36 239.15 1122.32 236.06 1126.06 232.63 1121.69 230.03 1125.09 226.25 1120.53 224.01 1123.67 220.01 1118.98 218.06 1121.88 213.88 1117.09 212.18 1119.77 207.85 1114.9 206.38 1117.37 201.94 1112.43 200.71 1114.68 196.15 1109.69 195.17 1111.7 190.5 1106.66 189.81 1108.37 185.02 1103.29 184.69 1104.62 179.78 1099.54 179.92 1100.29 174.88 1095.3 175.79 1094.92 170.72 1090.65 173.3 1087.21 169.71 1087.24 174.68 1082.38 175.81 1085.64 179.72 1081.43 182.54 1085.47 185.63 1081.73 189.06 1086.11 191.66 1082.7 195.44 1087.26 197.68 1084.12 201.68 1088.82 203.63 1085.92 207.81 1090.71 209.51 1088.03 213.84 1092.9 215.31"/><ellipse class="cls-2" cx="1109" cy="205.44" rx="5.75" ry="26.78" transform="translate(4.11 431.96) rotate(-22.08)"/><rect class="cls-3" x="1137.42" y="323.55" width="4.43" height="8.11"/><path class="cls-4" d="M1004.28,420c0,1.52-3.84,3.36-3.58,4.82s4.5,1.9,5,3.3-2.46,4.45-1.72,5.75,4.88.27,5.83,1.43-.9,5,.23,6,4.72-1.27,6-.45.64,5,2,5.65,4.14-2.61,5.6-2.18,2.05,4.63,3.56,4.84,3.23-3.67,4.76-3.67,3.3,3.87,4.76,3.67,2.14-4.43,3.56-4.84,4.25,2.8,5.6,2.18.78-4.85,2-5.65,4.88,1.44,6,.45-.72-4.84.23-6,5.09-.14,5.83-1.44-2.23-4.34-1.72-5.75,4.75-1.81,5-3.3-3.58-3.3-3.58-4.82,3.84-3.36,3.58-4.82-4.5-1.9-5-3.3,2.46-4.45,1.72-5.75-4.88-.27-5.83-1.43.9-5-.23-6-4.72,1.27-6,.45-.64-5-2-5.65-4.14,2.61-5.6,2.18-2.05-4.63-3.56-4.84-3.23,3.67-4.76,3.67-3.3-3.87-4.76-3.67-2.14,4.43-3.56,4.84-4.25-2.8-5.6-2.18-.78,4.85-2,5.65-4.88-1.44-6-.45.72,4.84-.23,6-5.09.14-5.83,1.44,2.23,4.34,1.72,5.75-4.75,1.81-5,3.3S1004.28,418.52,1004.28,420Z"/><path class="cls-5" d="M1004.28,420c0,1.52-3.84,3.36-3.58,4.82s4.5,1.9,5,3.3-2.46,4.45-1.72,5.75,4.88.27,5.83,1.43-.9,5,.23,6,4.72-1.27,6-.45.64,5,2,5.65,4.14-2.61,5.6-2.18,2.05,4.63,3.56,4.84,3.23-3.67,4.76-3.67,3.3,3.87,4.76,3.67,2.14-4.43,3.56-4.84,4.25,2.8,5.6,2.18.78-4.85,2-5.65,4.88,1.44,6,.45-.72-4.84.23-6,5.09-.14,5.83-1.44-2.23-4.34-1.72-5.75,4.75-1.81,5-3.3-3.58-3.3-3.58-4.82,3.84-3.36,3.58-4.82-4.5-1.9-5-3.3,2.46-4.45,1.72-5.75-4.88-.27-5.83-1.43.9-5-.23-6-4.72,1.27-6,.45-.64-5-2-5.65-4.14,2.61-5.6,2.18-2.05-4.63-3.56-4.84-3.23,3.67-4.76,3.67-3.3-3.87-4.76-3.67-2.14,4.43-3.56,4.84-4.25-2.8-5.6-2.18-.78,4.85-2,5.65-4.88-1.44-6-.45.72,4.84-.23,6-5.09.14-5.83,1.44,2.23,4.34,1.72,5.75-4.75,1.81-5,3.3S1004.28,418.52,1004.28,420Z"/><rect class="cls-6" x="1138.75" y="365.58" width="21.75" height="67.9" rx="10.87" ry="10.87" transform="translate(-16.8 746.98) rotate(-35.75)"/><path class="cls-7" d="M1044.49,397.18c0,.58-6,1.23-6,1.81s6,.92,6.06,1.49-5.92,1.54-5.87,2.12,6.07.6,6.13,1.17-5.83,1.85-5.75,2.42,6.1.27,6.19.84-5.72,2.16-5.62,2.73,6.1-.05,6.22.51-5.6,2.47-5.46,3,6.09-.38,6.24.17-5.46,2.76-5.29,3.31,6.06-.71,6.24-.16-5.3,3.06-5.1,3.6,6-1,6.22-.5-5.13,3.34-4.9,3.87,5.95-1.36,6.19-.84-4.94,3.61-4.68,4.13,5.86-1.68,6.13-1.17-4.73,3.88-4.45,4.38,5.76-2,6.06-1.51-4.51,4.13-4.21,4.61,5.65-2.31,6-1.84-4.28,4.37-3.95,4.84,5.51-2.62,5.86-2.16-4,4.6-3.67,5,5.36-2.92,5.73-2.48-3.77,4.81-3.39,5.24,5.19-3.21,5.58-2.79-3.5,5-3.09,5.42,5-3.5,5.42-3.1-3.22,5.2-2.79,5.59,4.8-3.77,5.24-3.4-2.92,5.38-2.47,5.73,4.58-4,5-3.69-2.61,5.53-2.14,5.87,4.34-4.29,4.82-4-2.29,5.67-1.8,6,4.08-4.53,4.58-4.24-2,5.8-1.45,6.07,3.82-4.76,4.33-4.5-1.62,5.9-1.1,6.15,3.53-5,4.06-4.74-1.27,6-.74,6.2,3.23-5.17,3.77-5-.92,6-.37,6.23,2.92-5.35,3.47-5.19-.56,6.09,0,6.24,2.6-5.52,3.16-5.38-.19,6.11.37,6.23,2.27-5.66,2.84-5.56.17,6.11.74,6.2,1.93-5.79,2.5-5.72.53,6.09,1.1,6.14,1.58-5.89,2.16-5.86.89,6.05,1.46,6.07,1.24-6,1.81-6,1.24,6,1.81,6,.89-6,1.46-6.07,1.59,5.91,2.16,5.86.53-6.08,1.1-6.14,1.93,5.8,2.5,5.72.17-6.1.74-6.2,2.27,5.68,2.84,5.56-.19-6.1.37-6.23,2.61,5.53,3.16,5.38-.55-6.08,0-6.24,2.93,5.37,3.47,5.19-.91-6-.37-6.23,3.24,5.19,3.77,5-1.26-6-.74-6.2,3.54,5,4.06,4.74-1.61-5.88-1.1-6.15,3.82,4.77,4.33,4.5-1.95-5.78-1.45-6.07,4.09,4.54,4.58,4.24-2.28-5.66-1.8-6,4.35,4.3,4.82,4-2.6-5.52-2.14-5.87,4.59,4,5,3.69-2.91-5.36-2.47-5.73,4.81,3.78,5.24,3.4-3.21-5.19-2.79-5.59,5,3.51,5.42,3.1-3.49-5-3.09-5.42,5.2,3.22,5.58,2.79-3.76-4.8-3.39-5.24,5.37,2.93,5.73,2.48-4-4.59-3.68-5,5.52,2.63,5.86,2.16-4.27-4.36-3.95-4.84,5.66,2.32,6,1.83-4.5-4.12-4.21-4.61,5.78,2,6.06,1.51-4.72-3.87-4.45-4.38,5.88,1.69,6.13,1.17-4.92-3.6-4.68-4.13,6,1.37,6.19.84-5.11-3.33-4.9-3.87,6,1,6.22.5-5.29-3-5.1-3.59,6.07.71,6.24.16-5.44-2.76-5.29-3.31,6.1.39,6.24-.17-5.58-2.46-5.46-3,6.12.06,6.22-.51-5.71-2.16-5.62-2.73,6.11-.27,6.19-.84-5.81-1.85-5.75-2.42,6.09-.59,6.13-1.17-5.9-1.54-5.87-2.12,6-.91,6.06-1.49-6-1.23-6-1.81,6-1.23,6-1.81-6-.92-6.06-1.49,5.92-1.54,5.87-2.12-6.07-.6-6.13-1.17,5.83-1.85,5.75-2.42-6.1-.27-6.19-.84,5.72-2.16,5.62-2.73-6.1.05-6.22-.51,5.6-2.47,5.46-3-6.09.38-6.24-.17,5.46-2.76,5.29-3.31-6.06.71-6.24.16,5.3-3.06,5.1-3.6-6,1-6.22.5,5.13-3.34,4.9-3.87-5.95,1.36-6.19.84,4.94-3.61,4.68-4.13-5.86,1.68-6.13,1.17,4.73-3.88,4.45-4.38-5.76,2-6.06,1.51,4.51-4.13,4.21-4.61-5.65,2.31-6,1.84,4.28-4.37,3.95-4.84-5.51,2.62-5.86,2.16,4-4.6,3.67-5-5.36,2.92-5.73,2.48,3.77-4.81,3.39-5.24-5.19,3.21-5.58,2.79,3.5-5,3.09-5.42-5,3.5-5.42,3.1,3.22-5.2,2.79-5.59-4.8,3.77-5.24,3.4,2.92-5.38,2.47-5.73-4.58,4-5,3.69,2.61-5.53,2.14-5.87-4.34,4.29-4.82,4,2.29-5.67,1.8-6-4.08,4.53-4.58,4.24,2-5.8,1.45-6.07-3.82,4.76-4.33,4.5,1.62-5.9,1.1-6.15-3.53,5-4.06,4.74,1.27-6,.74-6.2-3.23,5.17-3.77,5,.92-6,.37-6.23-2.92,5.35-3.47,5.19.56-6.09,0-6.24-2.6,5.52-3.16,5.38.19-6.11-.37-6.23-2.27,5.66-2.84,5.56-.17-6.11-.74-6.2-1.93,5.79-2.5,5.72-.53-6.09-1.1-6.14-1.58,5.89-2.16,5.86-.89-6.05-1.46-6.07-1.24,6-1.81,6-1.24-6-1.81-6-.89,6-1.46,6.07-1.59-5.91-2.16-5.86-.53,6.08-1.1,6.14-1.93-5.8-2.5-5.72-.17,6.1-.74,6.2-2.27-5.68-2.84-5.56.19,6.1-.37,6.23-2.61-5.53-3.16-5.38.55,6.08,0,6.24-2.93-5.37-3.47-5.19.91,6,.37,6.23-3.24-5.19-3.77-5,1.26,6,.74,6.2-3.54-5-4.06-4.74,1.61,5.88,1.1,6.15-3.82-4.77-4.33-4.5,1.95,5.78,1.45,6.07-4.09-4.54-4.58-4.24,2.28,5.66,1.8,6-4.35-4.3-4.82-4,2.6,5.52,2.14,5.87-4.59-4-5-3.69,2.91,5.36,2.47,5.73-4.81-3.78-5.24-3.4,3.21,5.19,2.79,5.59-5-3.51-5.42-3.1,3.49,5,3.09,5.42-5.2-3.22-5.58-2.79,3.76,4.8,3.39,5.24-5.37-2.93-5.73-2.48,4,4.59,3.68,5-5.52-2.63-5.86-2.16,4.27,4.36,3.95,4.84-5.66-2.32-6-1.83,4.5,4.12,4.21,4.61-5.78-2-6.06-1.51,4.72,3.87,4.45,4.38-5.88-1.69-6.13-1.17,4.92,3.6,4.68,4.13-6-1.37-6.19-.84,5.11,3.33,4.9,3.87-6-1-6.22-.5,5.29,3,5.1,3.59-6.07-.71-6.24-.16,5.44,2.76,5.29,3.31-6.1-.39-6.24.17,5.58,2.46,5.46,3-6.12-.06-6.22.51,5.71,2.16,5.62,2.73-6.11.27-6.19.84,5.81,1.85,5.75,2.42-6.09.59-6.13,1.17,5.9,1.54,5.87,2.12-6,.91-6.06,1.49S1044.49,396.6,1044.49,397.18Z"/><ellipse class="cls-6" cx="1087.09" cy="435.37" rx="48.42" ry="39.74"/><path class="cls-8" d="M1143.46,483.83c-1.12,3.36-5,5.5-10.72,6.38-8.23,1.26-20.18-.13-32.76-4.34-21.26-7.11-36.26-19.55-33.51-27.78s22.22-9.15,43.48-2S1146.22,475.6,1143.46,483.83Z"/><rect class="cls-9" x="1128.1" y="385.7" width="21.75" height="57.59" rx="10.87" ry="10.87" transform="translate(-66.48 540.82) rotate(-25.98)"/><path class="cls-10" d="M1134.24,397.84c-1.82-.85.07-4.31-1.62-5.39s-4.27,2.13-5.69.7,1.75-4,.64-5.76-3.4.28-5-1,0-3.94-1.91-4.77-4.76,2.81-6,1.15,3-3.46,2.67-5.51-4.06-1.58-4.28-3.64c-.17-1.6,3.61-1.88,3.53-3.49s-3.69-1.35-3.83-3,3.44-2.08,3.21-3.73-4.55-2-4-3.62,4.24.62,5.39-.58-1.52-3.39-.56-4.75c1.08-1.53,4,.28,4.9-1.37s-2.49-4.2-1.15-5.5c1.59-1.54,4.11,1.87,6,.79s.17-4.47,2.16-5.43,3.54,2.54,5.59,1.7.63-4.2,2.66-5.08c1.78-.77,3.28,2.55,5,1.74s.87-5.22,2.82-5.15.81,4.4,2.54,5.33,3.14-2.18,5-1.5.83,3.94,2.69,4.35,3.77-3.62,5.27-2.44-2,4-1.16,5.67,4.43.22,5.06,2-3.18,2.72-2.81,4.44,4.08,1,4.37,2.75c.33,2-3.41,2.5-3.16,4.47s4.21,1.76,4.17,3.74-4,1.69-4.31,3.7,2.51,1.91,3,3.89c.52,2.21-2.1,3.33-.85,5.23s5.22.11,5.81,2.29c.55,2-3.78,2.42-3.94,4.49s4.25,3.74,3,5.4c-1.37,1.81-4.29-1.9-6.38-1s-.52,3.83-2.42,5.06c-1.37.88-3.46-1.66-4.59-.49s1.43,4.29.07,5.18-3.23-2.7-4.82-2.12-.7,4.6-2.39,4.74-1.49-4-3.17-4.27-2.47,3.4-4.12,3-1.34-4.8-3.17-4.7C1136.21,395.5,1135.91,398.62,1134.24,397.84Z"/><circle class="cls-7" cx="1098.82" cy="290.59" r="53.24"/><path class="cls-11" d="M1110.29,279.82c-2.79,11.71,14.9,17.17,24.89,13.77s15.05-15.09,11.3-26.1-20.64-24.71-24.89-13.77C1120.62,256.23,1111.2,276,1110.29,279.82Z"/><ellipse class="cls-19" cx="1135.56" cy="272.4" rx="12.15" ry="12.93" transform="translate(-23.74 131.98) rotate(-6.58)"/><ellipse class="cls-13" cx="1138.97" cy="269.55" rx="6.75" ry="6.34" transform="translate(-23.39 132.36) rotate(-6.58)"/><path class="cls-14" d="M1153.33,302.46l2.66-6.39a3.52,3.52,0,0,0-3.66-4.85l-6.71.77a3.52,3.52,0,0,0-2.45,5.56l4,5.62A3.52,3.52,0,0,0,1153.33,302.46Z"/><circle class="cls-7" cx="1141.85" cy="314.05" r="10.21"/><polygon class="cls-7" points="1051.1 218.91 1049.31 224.03 1054.61 225.22 1053.11 230.44 1058.47 231.32 1057.3 236.62 1062.69 237.14 1061.91 242.51 1067.33 242.6 1067.03 248.02 1072.43 247.53 1072.85 252.94 1078.07 251.54 1079.8 256.69 1084.06 253.46 1088.48 256.45 1088.58 251.11 1093.66 249.47 1090.45 245.1 1094.6 241.64 1090.41 238.19 1093.91 234.05 1089.3 231.18 1092.34 226.69 1087.5 224.25 1090.17 219.53 1085.16 217.45 1087.52 212.56 1082.39 210.78 1084.46 205.76 1079.24 204.28 1081.02 199.16 1075.73 197.96 1077.22 192.74 1071.87 191.87 1073.04 186.57 1067.64 186.04 1068.43 180.68 1063.01 180.58 1063.31 175.16 1057.91 175.65 1057.49 170.24 1052.27 171.65 1050.54 166.5 1046.28 169.72 1041.85 166.74 1041.75 172.08 1036.67 173.71 1039.89 178.08 1035.74 181.55 1039.93 185 1036.43 189.14 1041.03 192.01 1037.99 196.5 1042.84 198.93 1040.16 203.65 1045.17 205.74 1042.81 210.63 1047.94 212.4 1045.88 217.42 1051.1 218.91"/><ellipse class="cls-2" cx="1070.38" cy="209.76" rx="5.75" ry="26.78" transform="translate(23.88 517.25) rotate(-27.46)"/><path class="cls-15" d="M1143.25,323.85c-7.2,0-22.27,5.72-23.2-9.8"/><polygon class="cls-1" points="91.77 329.41 88.44 333.25 93.02 335.47 89.88 339.47 94.57 341.45 91.65 345.61 96.44 347.32 93.79 351.66 98.68 353.02 96.38 357.56 101.38 358.46 99.61 363.23 104.68 363.37 104.01 368.41 108.72 366.76 111.36 370.98 112.34 366.1 117.34 365.99 114.94 361.5 119.64 359.6 116.31 355.75 120.68 353.16 116.94 349.72 121.04 346.72 117.04 343.59 120.93 340.32 116.73 337.44 120.43 333.95 116.09 331.3 119.6 327.62 115.13 325.18 118.47 321.34 113.89 319.12 117.02 315.12 112.34 313.14 115.26 308.98 110.47 307.27 113.12 302.94 108.22 301.57 110.53 297.03 105.53 296.13 107.29 291.36 102.22 291.23 102.89 286.18 98.18 287.83 95.55 283.61 94.56 288.49 89.57 288.6 91.97 293.08 87.27 294.99 90.59 298.84 86.22 301.44 89.97 304.88 85.86 307.87 89.87 311 85.98 314.27 90.17 317.15 86.48 320.64 90.82 323.29 87.31 326.97 91.77 329.41"/><ellipse class="cls-2" cx="109.55" cy="323.05" rx="5.75" ry="26.78" transform="translate(-55.76 24.66) rotate(-10.25)"/><rect class="cls-3" x="136.97" y="440" width="4.43" height="8.11"/><path class="cls-4" d="M3.83,536.49c0,1.52-3.84,3.36-3.58,4.82s4.5,1.9,5,3.3-2.46,4.45-1.72,5.75,4.88.27,5.83,1.43-.9,5,.23,6,4.72-1.27,6-.45.64,5,2,5.65,4.14-2.61,5.6-2.18,2.05,4.63,3.56,4.84S30,562,31.53,562s3.3,3.87,4.76,3.67,2.14-4.43,3.56-4.84,4.25,2.8,5.6,2.18.78-4.85,2-5.65,4.88,1.44,6,.45-.72-4.84.23-6,5.09-.14,5.83-1.44-2.23-4.34-1.72-5.75,4.75-1.81,5-3.3-3.58-3.3-3.58-4.82,3.84-3.36,3.58-4.82-4.5-1.9-5-3.3,2.46-4.45,1.72-5.75-4.88-.27-5.83-1.43.9-5-.23-6-4.72,1.27-6,.45-.64-5-2-5.65-4.14,2.61-5.6,2.18-2.05-4.63-3.56-4.84S33,511,31.53,511s-3.3-3.87-4.76-3.67-2.14,4.43-3.56,4.84-4.25-2.8-5.6-2.18-.78,4.85-2,5.65-4.88-1.44-6-.45.72,4.84-.23,6-5.09.14-5.83,1.44,2.23,4.34,1.72,5.75-4.75,1.81-5,3.3S3.83,535,3.83,536.49Z"/><path class="cls-5" d="M3.83,536.49c0,1.52-3.84,3.36-3.58,4.82s4.5,1.9,5,3.3-2.46,4.45-1.72,5.75,4.88.27,5.83,1.43-.9,5,.23,6,4.72-1.27,6-.45.64,5,2,5.65,4.14-2.61,5.6-2.18,2.05,4.63,3.56,4.84S30,562,31.53,562s3.3,3.87,4.76,3.67,2.14-4.43,3.56-4.84,4.25,2.8,5.6,2.18.78-4.85,2-5.65,4.88,1.44,6,.45-.72-4.84.23-6,5.09-.14,5.83-1.44-2.23-4.34-1.72-5.75,4.75-1.81,5-3.3-3.58-3.3-3.58-4.82,3.84-3.36,3.58-4.82-4.5-1.9-5-3.3,2.46-4.45,1.72-5.75-4.88-.27-5.83-1.43.9-5-.23-6-4.72,1.27-6,.45-.64-5-2-5.65-4.14,2.61-5.6,2.18-2.05-4.63-3.56-4.84S33,511,31.53,511s-3.3-3.87-4.76-3.67-2.14,4.43-3.56,4.84-4.25-2.8-5.6-2.18-.78,4.85-2,5.65-4.88-1.44-6-.45.72,4.84-.23,6-5.09.14-5.83,1.44,2.23,4.34,1.72,5.75-4.75,1.81-5,3.3S3.83,535,3.83,536.49Z"/><rect class="cls-6" x="138.31" y="482.03" width="21.75" height="67.9" rx="10.87" ry="10.87" transform="translate(-273.36 184.39) rotate(-35.75)"/><path class="cls-7" d="M44,513.63c0,.58-6,1.23-6,1.81s6,.92,6.06,1.49-5.92,1.54-5.87,2.12,6.07.6,6.13,1.17-5.83,1.85-5.75,2.42,6.1.27,6.19.84-5.72,2.16-5.62,2.73,6.1-.05,6.22.51-5.6,2.47-5.46,3,6.09-.38,6.24.17-5.46,2.76-5.29,3.31,6.06-.71,6.24-.16-5.3,3.06-5.1,3.6,6-1,6.22-.5-5.13,3.34-4.9,3.87,5.95-1.36,6.19-.84-4.94,3.61-4.68,4.13,5.86-1.68,6.13-1.17-4.73,3.88-4.45,4.38,5.76-2,6.06-1.51-4.51,4.13-4.21,4.61,5.65-2.31,6-1.84-4.28,4.37-3.95,4.84,5.51-2.62,5.86-2.16-4,4.6-3.67,5S58,552.6,58.34,553s-3.77,4.81-3.39,5.24,5.19-3.21,5.58-2.79-3.5,5-3.09,5.42,5-3.5,5.42-3.1-3.22,5.2-2.79,5.59,4.8-3.77,5.24-3.4-2.92,5.38-2.47,5.73,4.58-4,5-3.69-2.61,5.53-2.14,5.87,4.34-4.29,4.82-4-2.29,5.67-1.8,6,4.08-4.53,4.58-4.24-2,5.8-1.45,6.07,3.82-4.76,4.33-4.5-1.62,5.9-1.1,6.15,3.53-5,4.06-4.74-1.27,6-.74,6.2,3.23-5.17,3.77-5-.92,6-.37,6.23,2.92-5.35,3.47-5.19-.56,6.09,0,6.24,2.6-5.52,3.16-5.38-.19,6.11.37,6.23,2.27-5.66,2.84-5.56.17,6.11.74,6.2,1.93-5.79,2.5-5.72.53,6.09,1.1,6.14,1.58-5.89,2.16-5.86.89,6.05,1.46,6.07,1.24-6,1.81-6,1.24,6,1.81,6,.89-6,1.46-6.07,1.59,5.91,2.16,5.86.53-6.08,1.1-6.14,1.93,5.8,2.5,5.72.17-6.1.74-6.2,2.27,5.68,2.84,5.56-.19-6.1.37-6.23,2.61,5.53,3.16,5.38-.55-6.08,0-6.24,2.93,5.37,3.47,5.19-.91-6-.37-6.23,3.24,5.19,3.77,5-1.26-6-.74-6.2,3.54,5,4.06,4.74-1.61-5.88-1.1-6.15,3.82,4.77,4.33,4.5-1.95-5.78-1.45-6.07,4.09,4.54,4.58,4.24-2.28-5.66-1.8-6,4.35,4.3,4.82,4-2.6-5.52-2.14-5.87,4.59,4,5,3.69-2.91-5.36-2.47-5.73,4.81,3.78,5.24,3.4-3.21-5.19-2.79-5.59,5,3.51,5.42,3.1-3.49-5-3.09-5.42,5.2,3.22,5.58,2.79-3.76-4.8-3.39-5.24,5.37,2.93,5.73,2.48-4-4.59-3.68-5,5.52,2.63,5.86,2.16-4.27-4.36-3.95-4.84,5.66,2.32,6,1.83-4.5-4.12-4.21-4.61,5.78,2,6.06,1.51-4.72-3.87-4.45-4.38,5.88,1.69,6.13,1.17-4.92-3.6-4.68-4.13,6,1.37,6.19.84-5.11-3.33-4.9-3.87,6,1,6.22.5-5.29-3-5.1-3.59,6.07.71,6.24.16-5.44-2.76-5.29-3.31,6.1.39,6.24-.17-5.58-2.46-5.46-3,6.12.06,6.22-.51-5.71-2.16-5.62-2.73,6.11-.27,6.19-.84-5.81-1.85-5.75-2.42,6.09-.59,6.13-1.17-5.9-1.54-5.87-2.12,6-.91,6.06-1.49-6-1.23-6-1.81,6-1.23,6-1.81-6-.92-6.06-1.49,5.92-1.54,5.87-2.12-6.07-.6-6.13-1.17,5.83-1.85,5.75-2.42-6.1-.27-6.19-.84,5.72-2.16,5.62-2.73-6.1.05-6.22-.51,5.6-2.47,5.46-3-6.09.38-6.24-.17,5.46-2.76,5.29-3.31-6.06.71-6.24.16,5.3-3.06,5.1-3.6-6,1-6.22.5,5.13-3.34,4.9-3.87-5.95,1.36-6.19.84,4.94-3.61,4.68-4.13-5.86,1.68-6.13,1.17,4.73-3.88,4.45-4.38-5.76,2-6.06,1.51,4.51-4.13,4.21-4.61-5.65,2.31-6,1.84,4.28-4.37,3.95-4.84-5.51,2.62-5.86,2.16,4-4.6,3.67-5-5.36,2.92-5.73,2.48,3.77-4.81,3.39-5.24-5.19,3.21-5.58,2.79,3.5-5,3.09-5.42-5,3.5-5.42,3.1,3.22-5.2,2.79-5.59-4.8,3.77-5.24,3.4,2.92-5.38,2.47-5.73-4.58,4-5,3.69,2.61-5.53,2.14-5.87-4.34,4.29-4.82,4,2.29-5.67,1.8-6-4.08,4.53-4.58,4.24,2-5.8,1.45-6.07-3.82,4.76-4.33,4.5,1.62-5.9,1.1-6.15-3.53,5-4.06,4.74,1.27-6,.74-6.2-3.23,5.17-3.77,5,.92-6,.37-6.23-2.92,5.35-3.47,5.19.56-6.09,0-6.24-2.6,5.52-3.16,5.38.19-6.11-.37-6.23-2.27,5.66-2.84,5.56-.17-6.11-.74-6.2-1.93,5.79-2.5,5.72-.53-6.09-1.1-6.14-1.58,5.89-2.16,5.86-.89-6.05-1.46-6.07-1.24,6-1.81,6-1.24-6-1.81-6-.89,6-1.46,6.07-1.59-5.91-2.16-5.86-.53,6.08-1.1,6.14-1.93-5.8-2.5-5.72-.17,6.1-.74,6.2-2.27-5.68-2.84-5.56.19,6.1-.37,6.23-2.61-5.53-3.16-5.38.55,6.08,0,6.24-2.93-5.37-3.47-5.19.91,6,.37,6.23-3.24-5.19-3.77-5,1.26,6,.74,6.2-3.54-5-4.06-4.74,1.61,5.88,1.1,6.15-3.82-4.77-4.33-4.5,1.95,5.78,1.45,6.07-4.09-4.54-4.58-4.24,2.28,5.66,1.8,6-4.35-4.3-4.82-4,2.6,5.52,2.14,5.87-4.59-4-5-3.69,2.91,5.36,2.47,5.73-4.81-3.78-5.24-3.4,3.21,5.19,2.79,5.59-5-3.51-5.42-3.1,3.49,5,3.09,5.42-5.2-3.22-5.58-2.79,3.76,4.8,3.39,5.24-5.37-2.93-5.73-2.48,4,4.59,3.68,5-5.52-2.63-5.86-2.16,4.27,4.36,3.95,4.84-5.66-2.32-6-1.83,4.5,4.12,4.21,4.61-5.78-2-6.06-1.51,4.72,3.87,4.45,4.38-5.88-1.69-6.13-1.17,4.92,3.6,4.68,4.13-6-1.37-6.19-.84,5.11,3.33,4.9,3.87-6-1-6.22-.5,5.29,3,5.1,3.59-6.07-.71-6.24-.16,5.44,2.76,5.29,3.31-6.1-.39-6.24.17,5.58,2.46,5.46,3-6.12-.06-6.22.51,5.71,2.16,5.62,2.73-6.11.27-6.19.84,5.81,1.85,5.75,2.42-6.09.59-6.13,1.17,5.9,1.54,5.87,2.12-6,.91-6.06,1.49S44,513.05,44,513.63Z"/><ellipse class="cls-6" cx="86.65" cy="551.82" rx="48.42" ry="39.74"/><path class="cls-8" d="M145.11,587.41c0,3.55-3,6.82-8.14,9.45-7.41,3.81-19.18,6.28-32.45,6.28-22.42,0-40.59-7-40.59-15.72s18.17-15.72,40.59-15.72S145.11,578.73,145.11,587.41Z"/><rect class="cls-9" x="127.66" y="502.15" width="21.75" height="57.59" rx="10.87" ry="10.87" transform="translate(-218.59 114.34) rotate(-25.98)"/><path class="cls-10" d="M135.83,511.46c-1.68-1.28-.23-3.81-2.18-4.61s-4.15,2.73-5.73,1.34,1.66-4,.64-5.82-3.16-.1-4.73-1.48-.13-3.74-2.08-4.54-4.08,2.72-5.7,1.36c-1.36-1.14,1.81-3.74,1-5.3s-3.88.14-4.76-1.4,2-3.41,1.06-5-4.73-.1-5.17-2,3.59-2.24,3.72-4.19-4-3.17-3-4.89,4.17,1.09,5.78-.08-.45-4,1.16-5.18c1.35-1,3.4,1.88,4.75.91s-.55-4.27,1-5c2-.92,3.35,2.67,5.51,2.06s1-3.18,2.89-4.39,3.84.87,5.42-.9-1-5.4,1.19-6.33c1.72-.73,2.22,3.66,4.06,4s2.33-3,4.18-2.82c1.56.18,1.3,3.56,2.87,3.62s1.82-3.52,3.39-3.36c1.85.18,1.41,3.75,3.25,4s3.67-3.72,5.08-2.51-2.27,3.62-1.72,5.39,3.82.7,4.42,2.46c.54,1.56-2.7,2.74-2.1,4.28s4,.32,4.48,1.88c.65,1.92-2.75,3-2.16,5s4.3,1.12,4.59,3.13-3.51,2.22-3.54,4.21,3.42,2,3.45,4-3.41,2.09-3.32,4.07,3.78,2,3.68,4c-.09,1.77-3.77,1.38-4.05,3.13s3.28,2.48,2.86,4.21-4,.81-4.54,2.59,3,3.77,1.85,5.22-3.85-1.71-5.48-.79-.13,4.56-1.94,5.06-2.26-3.43-4-3.41-1.64,3.4-3.42,3.53-2.14-3.24-3.92-3-2.4,4.55-4,3.82,1.13-4.66-.23-5.9S137.29,512.58,135.83,511.46Z"/><circle class="cls-7" cx="98.38" cy="407.04" r="53.24"/><path class="cls-11" d="M109.85,396.27c-2.79,11.71,14.9,17.17,24.89,13.77s15.05-15.09,11.3-26.1-20.64-24.71-24.89-13.77C120.17,372.68,110.76,392.47,109.85,396.27Z"/><ellipse class="cls-20" cx="135.12" cy="388.85" rx="12.15" ry="12.93" transform="translate(-43.69 18.05) rotate(-6.58)"/><ellipse class="cls-13" cx="138.53" cy="386" rx="6.75" ry="6.34" transform="translate(-43.34 18.43) rotate(-6.58)"/><path class="cls-14" d="M152.89,418.91l2.66-6.39a3.52,3.52,0,0,0-3.66-4.85l-6.71.77a3.52,3.52,0,0,0-2.45,5.56l4,5.62A3.52,3.52,0,0,0,152.89,418.91Z"/><circle class="cls-7" cx="141.41" cy="430.5" r="10.21"/><polygon class="cls-7" points="49.12 330.87 45.9 335.23 50.6 337.94 47.63 342.48 52.49 344.91 49.8 349.62 54.8 351.72 52.46 356.61 57.62 358.31 55.73 363.39 61.03 364.52 59.82 369.82 65.23 370.02 65.36 375.45 70.38 373.63 73.72 377.79 75.4 372.72 80.74 372.66 78.96 367.53 83.95 365.45 80.97 360.91 85.54 358 81.98 353.89 86.22 350.5 82.31 346.74 86.26 343.02 82.09 339.55 85.79 335.58 81.42 332.37 84.88 328.18 80.33 325.22 83.55 320.85 78.84 318.15 81.81 313.6 76.96 311.18 79.65 306.47 74.64 304.37 76.98 299.47 71.83 297.78 73.72 292.69 68.42 291.56 69.62 286.27 64.22 286.07 64.09 280.64 59.07 282.46 55.72 278.3 54.05 283.37 48.71 283.43 50.49 288.56 45.5 290.64 48.48 295.17 43.91 298.09 47.46 302.19 43.23 305.58 47.14 309.35 43.19 313.06 47.35 316.54 43.66 320.51 48.03 323.72 44.57 327.9 49.12 330.87"/><ellipse class="cls-2" cx="70.25" cy="327.84" rx="5.75" ry="26.78" transform="translate(-57.24 17.74) rotate(-10.25)"/><path class="cls-15" d="M142.8,440.3c-7.2,0-22.27,5.72-23.2-9.8"/><polygon class="cls-1" points="1297.41 330.82 1294.08 334.67 1298.66 336.88 1295.52 340.89 1300.21 342.86 1297.29 347.03 1302.08 348.73 1299.43 353.07 1304.32 354.44 1302.02 358.97 1307.02 359.88 1305.26 364.64 1310.33 364.78 1309.65 369.82 1314.37 368.17 1317 372.4 1317.98 367.52 1322.98 367.41 1320.58 362.92 1325.28 361.02 1321.96 357.17 1326.32 354.57 1322.58 351.13 1326.68 348.14 1322.68 345 1326.57 341.74 1322.38 338.86 1326.07 335.36 1321.73 332.72 1325.24 329.03 1320.78 326.6 1324.11 322.75 1319.53 320.54 1322.67 316.53 1317.98 314.56 1320.9 310.39 1316.11 308.69 1318.76 304.35 1313.87 302.98 1316.17 298.45 1311.17 297.54 1312.93 292.77 1307.86 292.64 1308.54 287.59 1303.82 289.24 1301.19 285.02 1300.2 289.9 1295.21 290.01 1297.61 294.5 1292.91 296.4 1296.23 300.25 1291.87 302.85 1295.61 306.29 1291.51 309.28 1295.51 312.42 1291.62 315.68 1295.81 318.56 1292.12 322.06 1296.46 324.7 1292.95 328.38 1297.41 330.82"/><ellipse class="cls-2" cx="1315.2" cy="324.46" rx="5.75" ry="26.78" transform="translate(-36.75 239.31) rotate(-10.25)"/><rect class="cls-3" x="1342.61" y="441.42" width="4.43" height="8.11"/><path class="cls-4" d="M1209.47,537.9c0,1.52-3.84,3.36-3.58,4.82s4.5,1.9,5,3.3-2.46,4.45-1.72,5.75,4.88.27,5.83,1.43-.9,5,.23,6,4.72-1.27,6-.45.64,5,2,5.65,4.14-2.61,5.6-2.18,2.05,4.63,3.56,4.84,3.23-3.67,4.76-3.67,3.3,3.87,4.76,3.67,2.14-4.43,3.56-4.84,4.25,2.8,5.6,2.18.78-4.85,2-5.65,4.88,1.44,6,.45-.72-4.84.23-6,5.09-.14,5.83-1.44-2.23-4.34-1.72-5.75,4.75-1.81,5-3.3-3.58-3.3-3.58-4.82,3.84-3.36,3.58-4.82-4.5-1.9-5-3.3,2.46-4.45,1.72-5.75-4.88-.27-5.83-1.43.9-5-.23-6-4.72,1.27-6,.45-.64-5-2-5.65-4.14,2.61-5.6,2.18-2.05-4.63-3.56-4.84-3.23,3.67-4.76,3.67-3.3-3.87-4.76-3.67-2.14,4.43-3.56,4.84-4.25-2.8-5.6-2.18-.78,4.85-2,5.65-4.88-1.44-6-.45.72,4.84-.23,6-5.09.14-5.83,1.44,2.23,4.34,1.72,5.75-4.75,1.81-5,3.3S1209.47,536.38,1209.47,537.9Z"/><path class="cls-5" d="M1209.47,537.9c0,1.52-3.84,3.36-3.58,4.82s4.5,1.9,5,3.3-2.46,4.45-1.72,5.75,4.88.27,5.83,1.43-.9,5,.23,6,4.72-1.27,6-.45.64,5,2,5.65,4.14-2.61,5.6-2.18,2.05,4.63,3.56,4.84,3.23-3.67,4.76-3.67,3.3,3.87,4.76,3.67,2.14-4.43,3.56-4.84,4.25,2.8,5.6,2.18.78-4.85,2-5.65,4.88,1.44,6,.45-.72-4.84.23-6,5.09-.14,5.83-1.44-2.23-4.34-1.72-5.75,4.75-1.81,5-3.3-3.58-3.3-3.58-4.82,3.84-3.36,3.58-4.82-4.5-1.9-5-3.3,2.46-4.45,1.72-5.75-4.88-.27-5.83-1.43.9-5-.23-6-4.72,1.27-6,.45-.64-5-2-5.65-4.14,2.61-5.6,2.18-2.05-4.63-3.56-4.84-3.23,3.67-4.76,3.67-3.3-3.87-4.76-3.67-2.14,4.43-3.56,4.84-4.25-2.8-5.6-2.18-.78,4.85-2,5.65-4.88-1.44-6-.45.72,4.84-.23,6-5.09.14-5.83,1.44,2.23,4.34,1.72,5.75-4.75,1.81-5,3.3S1209.47,536.38,1209.47,537.9Z"/><rect class="cls-6" x="1343.95" y="483.45" width="21.75" height="67.9" rx="10.87" ry="10.87" transform="translate(-47 889.08) rotate(-35.75)"/><path class="cls-7" d="M1249.68,515c0,.58-6,1.23-6,1.81s6,.92,6.06,1.49-5.92,1.54-5.87,2.12,6.07.6,6.13,1.17-5.83,1.85-5.75,2.42,6.1.27,6.19.84-5.72,2.16-5.62,2.73,6.1-.05,6.22.51-5.6,2.47-5.46,3,6.09-.38,6.24.17-5.46,2.76-5.29,3.31,6.06-.71,6.24-.16-5.3,3.06-5.1,3.6,6-1,6.22-.5-5.13,3.34-4.9,3.87,5.95-1.36,6.19-.84-4.94,3.61-4.68,4.13,5.86-1.68,6.13-1.17-4.73,3.88-4.45,4.38,5.76-2,6.06-1.51-4.51,4.13-4.21,4.61,5.65-2.31,6-1.84-4.28,4.37-3.95,4.84,5.51-2.62,5.86-2.16-4,4.6-3.67,5,5.36-2.92,5.73-2.48-3.77,4.81-3.39,5.24,5.19-3.21,5.58-2.79-3.5,5-3.09,5.42,5-3.5,5.42-3.1-3.22,5.2-2.79,5.59,4.8-3.77,5.24-3.4-2.92,5.38-2.47,5.73,4.58-4,5-3.69-2.61,5.53-2.14,5.87,4.34-4.29,4.82-4-2.29,5.67-1.8,6,4.08-4.53,4.58-4.24-2,5.8-1.45,6.07,3.82-4.76,4.33-4.5-1.62,5.9-1.1,6.15,3.53-5,4.06-4.74-1.27,6-.74,6.2,3.23-5.17,3.77-5-.92,6-.37,6.23,2.92-5.35,3.47-5.19-.56,6.09,0,6.24,2.6-5.52,3.16-5.38-.19,6.11.37,6.23,2.27-5.66,2.84-5.56.17,6.11.74,6.2,1.93-5.79,2.5-5.72.53,6.09,1.1,6.14,1.58-5.89,2.16-5.86.89,6.05,1.46,6.07,1.24-6,1.81-6,1.24,6,1.81,6,.89-6,1.46-6.07,1.59,5.91,2.16,5.86.53-6.08,1.1-6.14,1.93,5.8,2.5,5.72.17-6.1.74-6.2,2.27,5.68,2.84,5.56-.19-6.1.37-6.23,2.61,5.53,3.16,5.38-.55-6.08,0-6.24,2.93,5.37,3.47,5.19-.91-6-.37-6.23,3.24,5.19,3.77,5-1.26-6-.74-6.2,3.54,5,4.06,4.74-1.61-5.88-1.1-6.15,3.82,4.77,4.33,4.5-1.95-5.78-1.45-6.07,4.09,4.54,4.58,4.24-2.28-5.66-1.8-6,4.35,4.3,4.82,4-2.6-5.52-2.14-5.87,4.59,4,5,3.69-2.91-5.36-2.47-5.73,4.81,3.78,5.24,3.4-3.21-5.19-2.79-5.59,5,3.51,5.42,3.1-3.49-5-3.09-5.42,5.2,3.22,5.58,2.79-3.76-4.8-3.39-5.24,5.37,2.93,5.73,2.48-4-4.59-3.68-5,5.52,2.63,5.86,2.16-4.27-4.36-3.95-4.84,5.66,2.32,6,1.83-4.5-4.12-4.21-4.61,5.78,2,6.06,1.51-4.72-3.87-4.45-4.38,5.88,1.69,6.13,1.17-4.92-3.6-4.68-4.13,6,1.37,6.19.84-5.11-3.33-4.9-3.87,6,1,6.22.5-5.29-3-5.1-3.59,6.07.71,6.24.16-5.44-2.76-5.29-3.31,6.1.39,6.24-.17-5.58-2.46-5.46-3,6.12.06,6.22-.51-5.71-2.16-5.62-2.73,6.11-.27,6.19-.84-5.81-1.85-5.75-2.42,6.09-.59,6.13-1.17-5.9-1.54-5.87-2.12,6-.91,6.06-1.49-6-1.23-6-1.81,6-1.23,6-1.81-6-.92-6.06-1.49,5.92-1.54,5.87-2.12-6.07-.6-6.13-1.17,5.83-1.85,5.75-2.42-6.1-.27-6.19-.84,5.72-2.16,5.62-2.73-6.1.05-6.22-.51,5.6-2.47,5.46-3-6.09.38-6.24-.17,5.46-2.76,5.29-3.31-6.06.71-6.24.16,5.3-3.06,5.1-3.6-6,1-6.22.5,5.13-3.34,4.9-3.87-5.95,1.36-6.19.84,4.94-3.61,4.68-4.13-5.86,1.68-6.13,1.17,4.73-3.88,4.45-4.38-5.76,2-6.06,1.51,4.51-4.13,4.21-4.61-5.65,2.31-6,1.84,4.28-4.37,3.95-4.84-5.51,2.62-5.86,2.16,4-4.6,3.67-5-5.36,2.92-5.73,2.48,3.77-4.81,3.39-5.24-5.19,3.21-5.58,2.79,3.5-5,3.09-5.42-5,3.5-5.42,3.1,3.22-5.2,2.79-5.59-4.8,3.77-5.24,3.4,2.92-5.38,2.47-5.73-4.58,4-5,3.69,2.61-5.53,2.14-5.87-4.34,4.29-4.82,4,2.29-5.67,1.8-6-4.08,4.53-4.58,4.24,2-5.8,1.45-6.07-3.82,4.76-4.33,4.5,1.62-5.9,1.1-6.15-3.53,5-4.06,4.74,1.27-6,.74-6.2-3.23,5.17-3.77,5,.92-6,.37-6.23-2.92,5.35-3.47,5.19.56-6.09,0-6.24-2.6,5.52-3.16,5.38.19-6.11-.37-6.23-2.27,5.66-2.84,5.56-.17-6.11-.74-6.2-1.93,5.79-2.5,5.72-.53-6.09-1.1-6.14-1.58,5.89-2.16,5.86-.89-6.05-1.46-6.07-1.24,6-1.81,6-1.24-6-1.81-6-.89,6-1.46,6.07-1.59-5.91-2.16-5.86-.53,6.08-1.1,6.14-1.93-5.8-2.5-5.72-.17,6.1-.74,6.2-2.27-5.68-2.84-5.56.19,6.1-.37,6.23-2.61-5.53-3.16-5.38.55,6.08,0,6.24-2.93-5.37-3.47-5.19.91,6,.37,6.23-3.24-5.19-3.77-5,1.26,6,.74,6.2-3.54-5-4.06-4.74,1.61,5.88,1.1,6.15-3.82-4.77-4.33-4.5,1.95,5.78,1.45,6.07-4.09-4.54-4.58-4.24,2.28,5.66,1.8,6-4.35-4.3-4.82-4,2.6,5.52,2.14,5.87-4.59-4-5-3.69,2.91,5.36,2.47,5.73-4.81-3.78-5.24-3.4,3.21,5.19,2.79,5.59-5-3.51-5.42-3.1,3.49,5,3.09,5.42-5.2-3.22-5.58-2.79,3.76,4.8,3.39,5.24-5.37-2.93-5.73-2.48,4,4.59,3.68,5-5.52-2.63-5.86-2.16,4.27,4.36,3.95,4.84-5.66-2.32-6-1.83,4.5,4.12,4.21,4.61-5.78-2-6.06-1.51,4.72,3.87,4.45,4.38-5.88-1.69-6.13-1.17,4.92,3.6,4.68,4.13-6-1.37-6.19-.84,5.11,3.33,4.9,3.87-6-1-6.22-.5,5.29,3,5.1,3.59-6.07-.71-6.24-.16,5.44,2.76,5.29,3.31-6.1-.39-6.24.17,5.58,2.46,5.46,3-6.12-.06-6.22.51,5.71,2.16,5.62,2.73-6.11.27-6.19.84,5.81,1.85,5.75,2.42-6.09.59-6.13,1.17,5.9,1.54,5.87,2.12-6,.91-6.06,1.49S1249.68,514.47,1249.68,515Z"/><ellipse class="cls-6" cx="1292.29" cy="553.24" rx="48.42" ry="39.74"/><path class="cls-8" d="M1350.76,588.82c0,3.55-3,6.82-8.14,9.45-7.41,3.81-19.18,6.28-32.45,6.28-22.42,0-40.59-7-40.59-15.72s18.17-15.72,40.59-15.72S1350.76,580.14,1350.76,588.82Z"/><rect class="cls-9" x="1333.3" y="503.57" width="21.75" height="57.59" rx="10.87" ry="10.87" transform="translate(-97.37 642.62) rotate(-25.98)"/><path class="cls-10" d="M1339.14,515.79c-1.75-1,1.1-4.22-.12-5.83s-3.53.51-5-.83.35-3.89-1.39-4.92-3.55,2-5.29,1,0-4.09-1.71-5.11-4.24,2.19-5.67.75,1.84-3.87.86-5.62-4.79-.29-5.24-2.24,3.64-2.18,3.78-4.1-3-1.83-3.26-3.73c-.26-2.07,2.84-2.74,2.22-4.73s-5.48-2.42-4.52-4.27c1-2,4.33,1.65,6.43.81s.68-3.51,2.54-4.79c1.36-.93,3.42,1.27,4.43,0s-1.79-3.74-.65-4.92c1.59-1.65,4.17,1,5.88-.5s-.57-5.14,1.54-6,3.18,3.24,5.55,3.07,1.9-3.33,4.22-3.85c1.62-.36,2.64,2.65,4.15,2s.28-4.42,1.9-4.75,2.06,3.55,3.8,3.58,2.07-3.75,3.79-3.47c1.88.3,1,4,2.87,4.54s3.56-3.16,5.15-2.1-1.11,4.12.14,5.63,5.31-.33,5.62,1.6-4.13,1.68-4.82,3.67,2,2.36,2.07,4.46-2.48,2.77-1.58,4.69,4.22.44,5.05,2.39-2.57,3.26-1.83,5.19,5.11,1.36,4.9,3.42c-.24,2.36-4.47,1-5.62,3.11s1.08,2.67,1,5-2.26,2.78-1.18,4.73,6,1.34,5.43,3.5-4.46-1-6.34.1-.12,4.1-2,5.19c-1.39.81-3.2-2.2-4.57-1.35s.52,3.84-.84,4.71-3.41-2-4.9-1-.12,5.09-1.88,5.2-.9-4.15-2.48-4.93-2.73,2.22-4.43,1.74c-1.85-.52-1.92-4.29-3.78-3.82C1341,513.52,1340.8,516.75,1339.14,515.79Z"/><circle class="cls-7" cx="1304.02" cy="408.45" r="53.24"/><path class="cls-11" d="M1315.49,397.68c-2.79,11.71,14.9,17.17,24.89,13.77s15.05-15.09,11.3-26.1-20.64-24.71-24.89-13.77C1325.82,374.1,1316.4,393.88,1315.49,397.68Z"/><ellipse class="cls-21" cx="1340.76" cy="390.27" rx="12.15" ry="12.93" transform="translate(-35.9 156.29) rotate(-6.58)"/><ellipse class="cls-13" cx="1344.17" cy="387.42" rx="6.75" ry="6.34" transform="translate(-35.55 156.66) rotate(-6.58)"/><path class="cls-14" d="M1354,432.22l2.66-6.39A3.52,3.52,0,0,0,1353,421l-6.71.77a3.52,3.52,0,0,0-2.45,5.56l4,5.62A3.52,3.52,0,0,0,1354,432.22Z"/><circle class="cls-7" cx="1347.05" cy="431.91" r="10.21"/><polygon class="cls-7" points="1254.76 332.28 1251.54 336.65 1256.24 339.35 1253.27 343.9 1258.13 346.32 1255.44 351.03 1260.45 353.13 1258.1 358.03 1263.26 359.72 1261.37 364.81 1266.67 365.94 1265.47 371.23 1270.87 371.43 1271 376.86 1276.02 375.04 1279.37 379.2 1281.04 374.13 1286.38 374.07 1284.6 368.94 1289.59 366.86 1286.61 362.33 1291.18 359.41 1287.63 355.31 1291.86 351.92 1287.95 348.16 1291.9 344.44 1287.73 340.97 1291.43 336.99 1287.06 333.78 1290.52 329.6 1285.97 326.63 1289.19 322.27 1284.49 319.56 1287.46 315.02 1282.6 312.6 1285.29 307.88 1280.29 305.78 1282.63 300.89 1277.47 299.19 1279.36 294.11 1274.06 292.98 1275.27 287.69 1269.86 287.48 1269.73 282.06 1264.71 283.87 1261.37 279.71 1259.69 284.78 1254.35 284.84 1256.13 289.97 1251.14 292.05 1254.12 296.59 1249.55 299.51 1253.11 303.61 1248.87 307 1252.78 310.76 1248.83 314.48 1253 317.95 1249.3 321.92 1253.67 325.13 1250.21 329.32 1254.76 332.28"/><ellipse class="cls-2" cx="1275.89" cy="329.25" rx="5.75" ry="26.78" transform="translate(-38.23 232.39) rotate(-10.25)"/><path class="cls-15" d="M1348.44,441.71c-7.2,0-22.27,5.72-23.2-9.8"/></g></svg>
